<?xml version="1.0" standalone="no"?>
<!DOCTYPE svg PUBLIC "-//W3C//DTD SVG 1.1//EN" "http://www.w3.org/Graphics/SVG/1.1/DTD/svg11.dtd" >
<svg xmlns="http://www.w3.org/2000/svg">
<metadata>Generated by IcoMoon</metadata>
<defs>
<font id="HumanityIcons" horiz-adv-x="1024">
<font-face units-per-em="1024" ascent="960" descent="-64" />
<missing-glyph horiz-adv-x="1024" />
<glyph unicode="&#x20;" horiz-adv-x="512" d="" />
<glyph unicode="&#xe600;" glyph-name="addBox" d="M307.2 460.8h153.6v-153.6c0-14.13 11.468-25.6 25.6-25.6s25.6 11.47 25.6 25.6v153.6h153.6c14.13 0 25.6 11.468 25.6 25.6s-11.47 25.6-25.6 25.6h-153.6v153.6c0 14.13-11.468 25.6-25.6 25.6s-25.6-11.468-25.6-25.6v-153.6h-153.6c-14.13 0-25.6-11.468-25.6-25.6s11.468-25.6 25.6-25.6zM947.2 972.8h-921.6c-14.132 0-25.6-11.468-25.6-25.6v-921.6c0-14.13 11.468-25.6 25.6-25.6h921.6c14.13 0 25.6 11.47 25.6 25.6v921.6c0 14.132-11.47 25.6-25.6 25.6zM921.6 51.2h-870.4v870.4h870.4v-870.4z" />
<glyph unicode="&#xe601;" glyph-name="addBoxMulti" d="M256 460.8h102.4v-102.4c0-14.13 11.468-25.6 25.6-25.6s25.6 11.47 25.6 25.6v102.4h102.4c14.13 0 25.6 11.468 25.6 25.6s-11.47 25.6-25.6 25.6h-102.4v102.4c0 14.13-11.468 25.6-25.6 25.6s-25.6-11.468-25.6-25.6v-102.4h-102.4c-14.132 0-25.6-11.468-25.6-25.6s11.468-25.6 25.6-25.6zM947.2 870.4h-921.6c-14.132 0-25.6-11.468-25.6-25.6v-716.8c0-14.13 11.468-25.6 25.6-25.6h921.6c14.13 0 25.6 11.47 25.6 25.6v716.8c0 14.132-11.47 25.6-25.6 25.6zM716.8 153.6h-665.6v665.6h665.6v-665.6zM819.2 153.6h-51.2v665.6h51.2v-665.6zM921.6 153.6h-51.2v665.6h51.2v-665.6z" />
<glyph unicode="&#xe602;" glyph-name="addSmall" d="M768 512h-204.8v204.8c0 14.132-11.47 25.6-25.6 25.6s-25.6-11.468-25.6-25.6v-204.8h-204.8c-14.132 0-25.6-11.468-25.6-25.6s11.468-25.6 25.6-25.6h204.8v-204.8c0-14.13 11.47-25.6 25.6-25.6s25.6 11.47 25.6 25.6v204.8h204.8c14.13 0 25.6 11.468 25.6 25.6s-11.47 25.6-25.6 25.6z" />
<glyph unicode="&#xe603;" glyph-name="arrowDoubleDn" d="M724.174 556.902l-212.070-213.71-212.274 213.556c-9.932 9.984-26.112 10.138-36.198 0.256-10.086-9.83-10.188-25.908-0.256-35.89l230.502-231.936c4.812-4.864 11.366-7.578 18.228-7.578s13.466 2.714 18.226 7.578l230.298 232.142c9.932 9.984 9.778 26.060-0.308 35.89-10.034 9.83-26.318 9.678-36.148-0.308zM493.876 441.498c4.812-4.864 11.366-7.578 18.226-7.578s13.466 2.714 18.226 7.578l230.298 232.14c9.932 9.984 9.778 26.062-0.308 35.892-10.034 9.83-26.318 9.728-36.198-0.256l-212.070-213.76-212.224 213.606c-9.932 9.984-26.112 10.138-36.198 0.256-10.086-9.83-10.188-25.958-0.256-35.942l230.502-231.936z" />
<glyph unicode="&#xe604;" glyph-name="arrowDoubleLeft" d="M343.194 460.698l213.556 212.274c9.984 9.932 10.086 26.112 0.206 36.198-9.83 10.086-25.908 10.24-35.84 0.256l-231.986-230.502c-4.812-4.812-7.526-11.418-7.526-18.228 0-6.86 2.714-13.466 7.578-18.228l232.142-230.298c4.914-4.966 11.366-7.374 17.766-7.374 6.606 0 13.158 2.56 18.126 7.63 9.83 10.086 9.678 26.266-0.308 36.198l-213.71 212.070zM709.222 248.626l-213.76 212.070 213.606 212.276c9.984 9.882 10.086 26.112 0.256 36.198s-25.908 10.24-35.942 0.256l-231.884-230.502c-4.864-4.812-7.578-11.418-7.578-18.228 0-6.86 2.714-13.466 7.578-18.228l232.14-230.298c4.914-4.966 11.366-7.374 17.818-7.374 6.502 0 13.106 2.56 18.074 7.63 9.83 10.086 9.678 26.266-0.308 36.198z" />
<glyph unicode="&#xe605;" glyph-name="arrowDoubleRight" d="M734.874 478.926l-231.936 230.502c-10.036 9.932-26.112 9.778-35.892-0.256-9.83-10.086-9.728-26.266 0.256-36.198l213.556-212.276-213.71-212.070c-9.984-9.932-10.138-26.112-0.308-36.198 4.916-5.12 11.468-7.63 18.074-7.63 6.4 0 12.85 2.458 17.818 7.374l232.14 230.298c4.864 4.812 7.578 11.366 7.578 18.228-0.052 6.81-2.764 13.414-7.578 18.226zM590.080 460.698c0 6.86-2.714 13.414-7.578 18.226l-231.936 230.45c-10.036 9.984-26.112 9.83-35.892-0.204s-9.728-26.318 0.204-36.198l213.606-212.276-213.76-212.070c-9.984-9.932-10.138-26.112-0.256-36.198 4.966-5.12 11.572-7.63 18.126-7.63 6.4 0 12.85 2.458 17.818 7.374l232.14 230.298c4.812 4.762 7.526 11.316 7.526 18.228z" />
<glyph unicode="&#xe606;" glyph-name="arrowDoubleUp" d="M530.33 531.302c-4.812 4.864-11.366 7.578-18.226 7.578s-13.414-2.714-18.226-7.578l-230.502-231.988c-9.932-9.984-9.83-26.062 0.256-35.89 10.036-9.83 26.266-9.678 36.198 0.256l212.276 213.606 212.070-213.76c4.966-5.018 11.622-7.526 18.226-7.526 6.452 0 12.954 2.406 17.972 7.322 10.086 9.83 10.24 25.908 0.308 35.89l-230.35 232.090zM299.826 416.050l212.274 213.556 212.070-213.71c5.018-5.068 11.622-7.578 18.226-7.578 6.452 0 12.954 2.406 17.972 7.322 10.086 9.83 10.24 25.908 0.308 35.892l-230.298 232.142c-4.812 4.812-11.418 7.526-18.278 7.526s-13.414-2.714-18.226-7.526l-230.502-231.936c-9.932-9.984-9.83-26.062 0.256-35.892 10.036-9.882 26.266-9.728 36.198 0.206z" />
<glyph unicode="&#xe607;" glyph-name="arrowFullDn" d="M762.674 541.696l-207.872-226.406c-9.574-10.342-25.14-11.008-34.662-0.666l-207.668 227.124c-9.524 10.342-5.786 21.452 8.294 21.452h433.714c14.028 0 17.766-11.162 8.192-21.504z" />
<glyph unicode="&#xe608;" glyph-name="arrowFullLeft" d="M644.302 668.876l-226.61-207.872c-10.342-9.574-10.956-25.14-0.614-34.662l227.328-207.718c10.342-9.472 21.198-5.734 21.198 8.346v433.664c0 14.080-10.906 17.818-21.298 8.244z" />
<glyph unicode="&#xe609;" glyph-name="arrowFullRight" d="M658.126 461.056l-234.65 207.872c-10.802 9.524-13.876 5.786-13.876-8.294v-433.716c0-14.080 3.072-17.818 13.926-8.294l233.216 207.718c10.802 9.574 12.236 25.14 1.382 34.714z" />
<glyph unicode="&#xe60a;" glyph-name="arrowFullUp" d="M762.674 328.55l-207.872 226.56c-9.574 10.342-25.14 10.956-34.662 0.614l-207.718-227.174c-9.472-10.342-5.734-21.35 8.346-21.35h433.716c14.028 0 17.766 11.008 8.192 21.35z" />
<glyph unicode="&#xe60b;" glyph-name="arrowLineDn" d="M760.524 606.566c-9.984 10.036-26.266 9.984-36.198 0.050l-238.028-237.62-237.772 237.926c-9.984 9.984-26.214 9.984-36.198 0s-9.984-26.214 0-36.198l255.846-256c4.966-5.018 11.52-7.526 18.074-7.526s13.108 2.51 18.074 7.476l256.154 255.692c10.034 9.984 10.034 26.214 0.052 36.198z" />
<glyph unicode="&#xe60c;" glyph-name="arrowLineLeft" d="M420.198 486.502l237.876 237.824c9.984 9.984 9.984 26.214 0 36.198s-26.214 9.984-36.198 0l-256-255.898c-9.984-9.984-9.984-26.164 0-36.198l255.642-256.102c5.018-5.018 11.572-7.526 18.126-7.526s13.106 2.51 18.074 7.476c10.034 9.984 10.034 26.214 0.052 36.198l-237.568 238.030z" />
<glyph unicode="&#xe60d;" glyph-name="arrowLineRight" d="M658.126 504.628l-256 255.846c-9.984 9.984-26.214 9.984-36.198 0s-9.984-26.214 0-36.198l237.876-237.772-237.62-238.030c-9.984-9.984-9.984-26.214 0.050-36.198 4.966-4.966 11.52-7.476 18.074-7.476s13.106 2.51 18.126 7.526l255.692 256.154c9.984 9.984 9.984 26.214 0 36.146z" />
<glyph unicode="&#xe60e;" glyph-name="arrowLineUp" d="M760.474 351.232l-256.154 255.692c-9.932 9.932-26.164 9.984-36.198 0l-255.846-256c-9.984-9.984-9.984-26.214 0-36.198 5.018-5.018 11.57-7.526 18.126-7.526s13.106 2.51 18.126 7.476l237.774 237.876 238.028-237.62c9.932-9.932 26.214-9.984 36.198 0.052s9.984 26.266-0.052 36.25z" />
<glyph unicode="&#xe60f;" glyph-name="arrowsCircle" d="M559.41 478.822l-135.218 135.476c-9.984 10.034-26.266 9.984-36.198 0.050-10.036-9.984-10.036-26.214-0.050-36.198l117.198-117.35-117.248-117.3c-9.984-9.984-9.984-26.214 0-36.198 5.018-5.018 11.572-7.476 18.126-7.476s13.108 2.51 18.126 7.476l135.322 135.372c9.932 9.984 9.932 26.164-0.052 36.148zM552.244 614.298c-9.984 10.036-26.266 9.984-36.198 0.050-10.036-9.984-10.036-26.214-0.052-36.198l117.146-117.35-117.248-117.3c-9.984-9.984-9.984-26.214 0-36.198 5.018-5.018 11.572-7.476 18.126-7.476s13.106 2.51 18.126 7.476l135.322 135.372c9.984 9.984 9.984 26.164 0 36.198l-135.22 135.424zM512 972.8c-282.318 0-512-229.682-512-512s229.682-512 512-512 512 229.682 512 512c0 282.316-229.682 512-512 512zM512 0c-254.054 0-460.8 206.746-460.8 460.8s206.746 460.8 460.8 460.8 460.8-206.694 460.8-460.8c0-254.054-206.694-460.8-460.8-460.8z" />
<glyph unicode="&#xe610;" glyph-name="autoApprove" d="M612.148 11.314c-33.69-7.476-67.43-11.316-100.25-11.316-254.002 0-460.698 206.746-460.698 460.8s206.694 460.8 460.698 460.8 460.698-206.694 460.698-460.8c0-32-3.534-64.666-10.496-97.076-2.97-13.824 5.836-27.442 19.66-30.414 13.824-3.072 27.442 5.786 30.414 19.662 7.73 35.89 11.622 72.192 11.622 107.776 0 282.318-229.632 512-511.898 512s-511.898-229.632-511.898-511.948c0-282.318 229.632-512 511.898-512 36.608 0 74.034 4.25 111.412 12.596 13.824 3.072 22.476 16.742 19.404 30.566-3.072 13.774-16.692 22.528-30.566 19.354zM890.214 307.2h-58.164l-135.27-358.4h62.158l29.39 102.4h144.128l29.030-102.4h62.516l-133.786 358.4zM805.99 102.4l54.118 153.6h1.486l53.402-153.6h-109.004zM672.972 587.264l-199.116-198.656-123.084 122.88c-9.932 9.984-26.164 10.036-36.146 0s-9.984-26.214 0.050-36.198l141.158-140.954c4.966-4.966 11.52-7.476 18.074-7.476s13.056 2.51 18.074 7.476l217.14 216.678c10.034 9.984 10.034 26.214 0.052 36.198-9.984 10.086-26.164 10.036-36.198 0.052z" />
<glyph unicode="&#xe611;" glyph-name="back" d="M657.306 614.4c-92.006 0-322.868 0-322.868 0v68.762l-232.038-230.4 232.038-230.4v84.838c0 0 275.098 0 351.898 0 87.86 0 138.496 4.148 162.304-69.326 24.166 57.038 82.38 376.524-191.334 376.524z" />
<glyph unicode="&#xe612;" glyph-name="bulb" d="M587.366 0h-159.13c-14.95 0-27.034-11.47-27.034-25.6s12.084-25.6 27.034-25.6h159.078c15.002 0 27.086 11.47 27.086 25.6s-12.082 25.6-27.034 25.6zM643.020 102.4h-270.336c-14.95 0-27.034-11.47-27.034-25.6s12.084-25.6 27.034-25.6h270.286c14.95 0 27.034 11.47 27.034 25.6s-12.032 25.6-26.982 25.6zM507.854 972.8c-176.076 0-354.252-114.33-354.252-332.8 0-85.606 58.522-159.796 108.902-231.526 46.028-65.536 95.898-127.438 95.898-191.386v-37.888c0-14.13-0.666-25.6 14.286-25.6h270.286c15.002 0 73.83 11.47 73.83 25.6v37.888c0 64 20.122 125.85 66.15 191.386 50.38 71.732 90.828 145.92 90.828 231.526 0 218.47-189.902 332.8-365.926 332.8zM739.38 436.838c-48.436-68.966-73.778-140.288-73.778-219.75v-12.288h-256v12.288c0 79.462-55.092 150.784-103.476 219.75-48.128 68.454-96 133.068-96 203.162 0 193.486 154.418 281.6 298.956 281.6 144.59 0 311.962-88.116 311.962-281.6 0-70.092-33.586-134.706-81.664-203.162z" />
<glyph unicode="&#xe613;" glyph-name="busy" d="M512 819.2c-197.99 0-358.4-160.512-358.4-358.4s160.41-358.4 358.4-358.4 358.4 160.512 358.4 358.4-160.41 358.4-358.4 358.4zM665.6 409.6h-307.2v102.4h307.2v-102.4z" />
<glyph unicode="&#xe614;" glyph-name="busyHalf" d="M512 819.2c-197.99 0-358.4-160.512-358.4-358.4s160.41-358.4 358.4-358.4 358.4 160.512 358.4 358.4-160.41 358.4-358.4 358.4zM358.4 409.6v102.4h307.2v-102.4h-307.2zM512 153.6v204.8h204.8v204.8h-204.8v204.8c169.42 0 307.2-137.778 307.2-307.2s-137.778-307.2-307.2-307.2z" />
<glyph unicode="&#xe615;" glyph-name="calendar" d="M399.104 389.324c15.77 7.578 27.904 18.278 36.454 32.052s12.8 28.11 12.8 42.804c0 31.488-9.524 55.962-28.57 73.012-18.996 17.152-44.492 26.010-76.442 26.010-30.31 0-55.246-8.294-74.854-26.214-19.558-17.972-28.878-45.004-28.006-71.372l0.462-4.812h52.634c0 0 4.658 29.952 14.028 38.86 9.37 8.96 21.504 13.978 36.352 13.978 16.332 0 28.724-2.51 37.12-11.572 8.448-9.114 12.646-20.122 12.646-36.71 0-16.948-3.892-32.358-11.726-41.626-7.782-9.268-20.532-14.13-38.246-14.13h-36.558v-51.2h36.558c18.738 0 32.562-0.87 41.524-10.034 8.908-9.268 13.362-21.452 13.362-40.908 0-17.664-4.864-30.054-14.644-39.68s-23.092-13.158-40.038-13.158c-16.178 0-29.184 4.558-38.912 14.028-9.728 9.37-14.592 38.554-14.592 38.554h-52.634l-0.462-2.714c-0.922-30.054 8.96-55.962 29.594-72.96 20.582-16.998 46.080-24.986 76.39-24.986 32.102 0 58.47 9.318 79.052 27.392 20.634 18.126 30.926 43.162 30.926 74.752 0 18.176-4.404 34.51-13.158 48.742-8.754 14.284-22.426 24.934-41.062 31.898zM998.4 819.2h-76.8v128c0 14.13-11.47 25.6-25.6 25.6h-870.4c-14.132 0-25.6-11.468-25.6-25.6v-870.4c0-14.13 11.468-25.6 25.6-25.6h128v-76.8c0-14.13 11.468-25.6 25.6-25.6h819.2c14.13 0 25.6 11.47 25.6 25.6v819.2c0 14.13-11.47 25.6-25.6 25.6zM51.2 921.6h153.6v-51.2c0-14.13 11.468-25.6 25.6-25.6s25.6 11.47 25.6 25.6v51.2h409.6v-51.2c0-14.13 11.47-25.6 25.6-25.6s25.6 11.47 25.6 25.6v51.2h153.6v-204.8h-819.2v204.8zM51.2 102.4v563.2h819.2v-563.2h-819.2zM972.8 0h-768v51.2h691.2c14.13 0 25.6 11.47 25.6 25.6v691.2h51.2v-768zM619.058 562.482c-33.126 0-59.238-11.878-78.438-35.584s-28.62-57.958-28.62-102.706v-79.002c0-44.902 8.294-79.154 27.648-102.706s44.236-35.328 77.362-35.328c33.024 0 56.626 11.776 75.826 35.328s23.962 57.754 23.962 102.656v79.002c0 44.75-4.762 79.002-24.116 102.708s-40.654 35.634-73.626 35.634zM665.6 336.998c0-28.62-1.69-49.664-10.548-63.284-8.858-13.568-19.15-20.378-36.404-20.378s-31.182 6.81-40.294 20.53c-9.062 13.62-15.154 34.714-15.154 63.13v96c0 28.262 5.222 49.204 14.182 62.822 8.908 13.568 22.784 20.378 40.038 20.378s28.826-6.81 37.836-20.378c8.96-13.568 10.342-34.51 10.342-62.772v-96.052z" />
<glyph unicode="&#xe616;" glyph-name="calendarSmall" d="M896 870.4h-768c-14.132 0-25.6-11.468-25.6-25.6v-768c0-14.13 11.468-25.6 25.6-25.6h768c14.13 0 25.6 11.47 25.6 25.6v768c0 14.132-11.47 25.6-25.6 25.6zM358.4 102.4h-204.8v204.8h204.8v-204.8zM358.4 358.4h-204.8v204.8h204.8v-204.8zM614.4 102.4h-204.8v204.8h204.8v-204.8zM614.4 358.4h-204.8v204.8h204.8v-204.8zM870.4 102.4h-204.8v204.8h204.8v-204.8zM870.4 358.4h-204.8v204.8h204.8v-204.8zM870.4 614.4h-716.8v204.8h153.6v-51.2c0-14.13 11.468-25.6 25.6-25.6s25.6 11.468 25.6 25.6v51.2h307.2v-51.2c0-14.13 11.47-25.6 25.6-25.6s25.6 11.468 25.6 25.6v51.2h153.6v-204.8z" />
<glyph unicode="&#xe617;" glyph-name="chart" d="M998.4 716.8h-281.6v230.4c0 14.13-11.47 25.6-25.6 25.6h-358.4c-14.13 0-25.6-11.468-25.6-25.6v-435.2h-281.6c-14.132 0-25.6-11.468-25.6-25.6v-512c0-14.13 11.468-25.6 25.6-25.6h972.8c14.13 0 25.6 11.47 25.6 25.6v716.8c0 14.13-11.47 25.6-25.6 25.6zM307.2 0h-256v460.8h256v-460.8zM665.6 0h-307.2v921.6h307.2v-921.6zM972.8 0h-256v665.6h256v-665.6z" />
<glyph unicode="&#xe618;" glyph-name="chartBox" d="M998.4 972.8h-972.8c-14.132 0-25.6-11.468-25.6-25.6v-972.8c0-14.13 11.468-25.6 25.6-25.6h972.8c14.13 0 25.6 11.47 25.6 25.6v972.8c0 14.132-11.418 25.6-25.6 25.6zM307.2 0h-256v307.2h256v-307.2zM665.6 0h-307.2v768h307.2v-768zM972.8 0h-256v512h256v-512zM972.8 563.2h-256v230.4c0 14.132-11.47 25.6-25.6 25.6h-358.4c-14.13 0-25.6-11.47-25.6-25.6v-435.2h-256v563.2h921.6v-358.4z" />
<glyph unicode="&#xe619;" glyph-name="chartCircle" d="M512 972.8c-282.318 0-512-229.682-512-512 0-142.644 58.778-271.77 153.19-364.698 0.358-6.092 2.61-11.878 6.86-16.332 52.224-54.528 147.508-92.98 214.63-117.146 0.768-0.256 1.586-0.206 2.356-0.41 0.87-0.206 1.536-0.716 2.406-0.818 58.676-8.96 96.87-12.594 131.89-12.594h0.666c0.256 0 0.46 0 0.718 0 34.764 0.102 72.654 3.788 130.51 12.646 0.818 0.102 1.486 0.562 2.254 0.768 0.87 0.206 1.69 0.154 2.51 0.462 67.174 24.166 162.458 62.566 214.63 117.094 3.89 4.096 5.938 9.37 6.554 14.95 95.386 93.030 154.828 222.668 154.828 366.080 0 282.316-229.682 512-512 512zM358.4 27.136c-51.2 20.428-102.4 51.814-153.6 91.802v137.062h153.6v-228.864zM614.4 11.724c-51.2-7.476-66.764-11.726-101.734-11.726-35.482 0-51.866 4.404-103.066 12.032v551.168h204.8v-551.476zM819.2 117.76c-51.2-39.68-102.4-70.86-153.6-91.086v331.726h153.6v-240.64zM844.134 409.6h-178.534v179.2c0 14.132-12.082 25.6-26.266 25.6h-256c-14.13 0-24.934-11.468-24.934-25.6v-281.6h-179.866c-14.132 0-24.934-11.47-24.934-25.6v-108.902c-51.2 79.002-102.094 179.15-102.094 288.102 0 254.054 206.592 460.8 460.646 460.8 254.106 0 461.056-206.694 461.056-460.8 0-109.774-51.61-210.638-102.81-289.894v213.094c0 14.13-12.082 25.6-26.266 25.6z" />
<glyph unicode="&#xe61a;" glyph-name="chat" d="M888.524 972.8h-752.178c-75.162 0-136.346-60.108-136.346-133.99v-577.946c0-73.266 59.546-158.464 136.346-158.464h273.254v-128c0-9.626 5.376-18.432 13.926-22.784 3.686-1.894 7.68-2.816 11.674-2.816 5.274 0 10.548 1.638 15.002 4.864l205.876 148.736h232.448c76.288 0 135.476 85.198 135.476 158.464v577.946c0 73.882-60.774 133.99-135.476 133.99zM972.8 260.864c0-47.258-39.68-107.264-84.274-107.264h-240.692c-5.376 0-10.65-1.69-15.002-4.864l-172.032-124.262v103.526c0 14.13-11.468 25.6-25.6 25.6h-298.854c-45.056 0-85.146 60.006-85.146 107.264v577.946c0 45.62 38.196 82.79 85.146 82.79h752.128c46.49 0 84.326-37.172 84.326-82.79v-577.946z" />
<glyph unicode="&#xe61b;" glyph-name="chatSmall" d="M512 870.4c-282.778 0-512-180.89-512-404.122 0-94.618 39.732-181.556 103.526-243.866l-72.038-222.414 291.226 89.394c405.094-102.758 701.286 128.614 701.286 376.884 0 223.232-229.222 404.122-512 404.122z" />
<glyph unicode="&#xe61c;" glyph-name="check" d="M716.8 768h-409.6c-56.32 0-102.4-46.080-102.4-102.4v-409.6c0-56.32 46.080-102.4 102.4-102.4h409.6c56.32 0 102.4 46.080 102.4 102.4v409.6c0 56.32-46.080 102.4-102.4 102.4zM768 256c0-28.212-22.938-51.2-51.2-51.2h-409.6c-28.262 0-51.2 22.99-51.2 51.2v409.6c0 28.212 22.938 51.2 51.2 51.2h409.6c28.262 0 51.2-22.988 51.2-51.2v-409.6z" />
<glyph unicode="&#xe61d;" glyph-name="checkPartial" d="M358.4 409.6h307.2v102.4h-307.2v-102.4zM716.8 768h-409.6c-56.32 0-102.4-46.080-102.4-102.4v-409.6c0-56.32 46.080-102.4 102.4-102.4h409.6c56.32 0 102.4 46.080 102.4 102.4v409.6c0 56.32-46.080 102.4-102.4 102.4zM768 256c0-28.212-22.938-51.2-51.2-51.2h-409.6c-28.262 0-51.2 22.99-51.2 51.2v409.6c0 28.212 22.938 51.2 51.2 51.2h409.6c28.262 0 51.2-22.988 51.2-51.2v-409.6z" />
<glyph unicode="&#xe61e;" glyph-name="checkSelect" d="M716.8 768h-409.6c-56.32 0-102.4-46.080-102.4-102.4v-409.6c0-56.32 46.080-102.4 102.4-102.4h409.6c56.32 0 102.4 46.080 102.4 102.4v409.6c0 56.32-46.080 102.4-102.4 102.4zM676.044 505.6l-162.202-162.1c-9.984-9.984-23.092-14.95-36.198-14.95s-26.214 5.018-36.198 15.002l-92.724 92.672c-20.020 19.968-20.020 52.378 0 72.398s52.378 20.020 72.396 0l56.524-56.474 126.004 125.902c20.020 19.968 52.378 19.968 72.398 0s20.020-52.43 0-72.448z" />
<glyph unicode="&#xe61f;" glyph-name="clockBig" d="M486.4 972.8c-268.186 0-486.4-218.214-486.4-486.4 0-268.238 218.214-486.4 486.4-486.4s486.4 218.164 486.4 486.4c0 268.186-218.214 486.4-486.4 486.4zM512 52.582v47.308c0 14.182-11.468 25.65-25.6 25.65s-25.6-11.418-25.6-25.6v-47.308c-204.8 12.902-394.65 203.366-408.218 408.166h49.664c14.132 0 25.6 11.418 25.6 25.6s-11.468 25.6-25.6 25.6h-49.818c12.236 204.8 203.572 395.162 408.37 408.114v-50.074c0-14.182 11.468-25.65 25.6-25.65s25.6 11.468 25.6 25.702v50.074c204.8-12.85 396.134-203.366 408.37-408.166h-50.126c-14.13 0-25.6-11.418-25.6-25.6s11.47-25.6 25.6-25.6h49.972c-13.568-204.8-203.418-395.418-408.218-408.218zM697.394 595.404l-181.402-104.14-259.788 252.416c-10.138 9.882-26.42 9.626-36.25-0.564-9.83-10.24-9.626-26.47 0.562-36.3l273.664-265.83c1.074-1.076 2.406-1.536 3.634-2.356 0.974-0.666 1.844-1.382 2.918-1.946 3.584-1.792 11.264-15.822 11.264-15.822v-12.85l0.052 51.354c3.942 0 7.73-11.572 11.316-9.778 0.41 0.206 0.922-6.35 1.332-6.094l198.092 110.592c12.288 7.014 16.538 21.146 9.524 33.434-6.962 12.238-22.578 14.95-34.918 7.884z" />
<glyph unicode="&#xe620;" glyph-name="clockFull" d="M512 819.2c-197.938 0-358.4-160.462-358.4-358.4s160.462-358.4 358.4-358.4 358.4 160.462 358.4 358.4-160.462 358.4-358.4 358.4zM679.22 497.51l-141.824-81.152c-7.884-4.558-16.692-6.758-25.394-6.758-13.004 0-25.856 4.914-35.634 14.438l-152.73 148.020c-20.326 19.712-20.786 52.070-1.126 72.396 19.712 20.326 52.122 20.788 72.396 1.126l125.082-121.242 108.39 62.054c24.626 13.978 55.808 5.53 69.888-19.046 14.028-24.474 5.53-55.808-19.046-69.836z" />
<glyph unicode="&#xe621;" glyph-name="clockSmall" d="M615.476 589.774l-125.082-71.578-163.584 158.516c-10.138 9.83-26.368 9.574-36.198-0.564s-9.574-26.368 0.562-36.198l177.408-171.93c1.074-1.074 2.406-1.536 3.634-2.356 0.974-0.666 1.844-1.382 2.918-1.894 3.584-1.792 7.372-2.97 11.264-2.97v0c0 0 0.050 0 0.050 0 3.942 0 7.73 1.178 11.314 3.022 0.462 0.204 0.922 0.102 1.382 0.358l141.824 81.152c12.236 7.014 16.538 22.682 9.524 34.97-7.066 12.186-22.682 16.486-35.020 9.472zM486.4 870.4c-211.764 0-384-172.236-384-384s172.236-384 384-384 384 172.236 384 384-172.236 384-384 384zM486.4 153.6c-183.5 0-332.8 149.298-332.8 332.8s149.3 332.8 332.8 332.8 332.8-149.298 332.8-332.8-149.298-332.8-332.8-332.8z" />
<glyph unicode="&#xe622;" glyph-name="close" d="M548.198 460.85l314.726 314.676c9.984 9.984 9.984 26.214 0 36.198s-26.214 9.984-36.198 0l-314.726-314.674-314.572 314.574c-9.984 9.984-26.214 9.984-36.198 0s-9.984-26.214 0-36.198l314.572-314.572-314.676-314.624c-9.984-9.984-9.984-26.214 0-36.198 5.018-5.018 11.57-7.476 18.126-7.476s13.106 2.51 18.126 7.476l314.624 314.624 314.726-314.726c4.966-5.018 11.52-7.526 18.074-7.526s13.106 2.51 18.126 7.476c9.984 9.984 9.984 26.214 0 36.198l-314.726 314.778z" />
<glyph unicode="&#xe623;" glyph-name="closeSmall" d="M548.812 460.85l160.154 159.538c10.188 10.138 10.446 26.778 0.614 37.222-9.778 10.496-26.010 10.65-36.198 0.614l-161.382-160.716-161.28 160.666c-10.19 10.086-26.418 9.882-36.198-0.614-9.83-10.444-9.574-27.084 0.562-37.222l160.102-159.488-160.206-159.54c-10.19-10.138-10.444-26.778-0.614-37.274 5.070-5.326 11.726-8.038 18.432-8.038 6.4 0 12.8 2.458 17.818 7.424l161.382 160.768 161.382-160.768c5.018-4.966 11.418-7.424 17.818-7.424 6.656 0 13.364 2.662 18.38 8.038 9.83 10.446 9.574 27.136-0.614 37.274l-160.154 159.54z" />
<glyph unicode="&#xe624;" glyph-name="cloud" d="M842.446 500.276c-14.028 148.582-127.078 216.524-231.116 216.524-120.32 0-181.556-70.86-208.026-115.046-50.944 33.178-134.758 16.998-171.57-32.614-13.21-17.766-20.174-38.35-20.48-60.006-90.982-0.41-159.538-68.352-159.538-158.26 0-84.634 69.632-146.074 165.58-146.074h592.948c92.928 0 163.072 62.924 163.072 146.38 0 83.098-50.586 139.52-130.866 149.094zM810.24 256h-592.948c-67.328 0-114.382 39.014-114.382 94.874 0 62.054 45.876 107.060 109.21 107.060 7.884 0 16.026-0.716 24.372-2.15 9.010-1.586 17.716 1.586 23.552 8.242 5.888 6.656 7.936 15.872 5.324 24.37-5.734 18.892-3.226 35.788 7.476 50.226 13.824 18.534 39.476 30.514 65.486 30.514 12.8 0 36.558-3.174 51.918-24.37 5.53-7.63 14.9-11.622 24.218-10.394 9.42 1.28 17.306 7.63 20.532 16.486 4.352 11.776 46.13 114.738 176.332 114.738 88.116 0 178.278-58.778 181.298-190.054 0.308-13.876 11.674-24.986 25.498-25.038 31.232-0.102 103.936-9.984 103.936-99.328 0.052-62.464-56.218-95.182-111.822-95.182z" />
<glyph unicode="&#xe625;" glyph-name="computer" d="M716.8 153.6h-409.6c-14.13 0-25.6-11.47-25.6-25.6s11.468-25.6 25.6-25.6h409.6c14.13 0 25.6 11.47 25.6 25.6s-11.47 25.6-25.6 25.6zM947.2 819.2h-870.4c-14.132 0-25.6-11.47-25.6-25.6v-563.2c0-14.13 11.47-25.6 25.6-25.6h870.4c14.13 0 25.6 11.47 25.6 25.6v563.2c0 14.132-11.47 25.6-25.6 25.6zM921.6 256h-819.2v512h819.2v-512z" />
<glyph unicode="&#xe626;" glyph-name="dashCircle" d="M458.956 499.2c-21.606-37.324-7.014-68.198 22.886-85.402s63.846-14.49 85.454 22.938c21.606 37.376 157.902 371.15 146.074 378.010-11.93 6.81-232.806-278.118-254.414-315.546zM577.178 747.93c13.774-3.022 27.494 5.53 30.668 19.302 3.124 13.824-5.53 27.494-19.302 30.67-220.98 50.226-422.4-121.242-422.4-337.050 0-14.132 11.468-25.6 25.6-25.6s25.6 11.47 25.6 25.6c0.050 183.706 170.342 330.19 359.834 287.078zM512 972.8c-282.318 0-512-229.682-512-512s229.682-512 512-512 512 229.682 512 512c0 282.316-229.682 512-512 512zM512 0c-254.054 0-460.8 206.746-460.8 460.8s206.746 460.8 460.8 460.8 460.8-206.694 460.8-460.8c0-254.054-206.694-460.8-460.8-460.8zM760.934 700.466c-9.83 10.24-26.112 10.496-36.198 0.716-10.188-9.83-10.496-26.010-0.716-36.198 53.298-55.346 82.636-127.846 82.636-204.134 0-14.132 11.47-25.6 25.6-25.6s25.6 11.47 25.6 25.6c0 89.55-34.406 174.694-96.922 239.616z" />
<glyph unicode="&#xe627;" glyph-name="database" d="M1024.308 588.492c0 0.512-0.308 0.974-0.308 1.486v200.602c0 0.718 0.308 1.382 0.308 2.1s-0.308 1.434-0.308 2.15v21.966c0 10.802-8.192 19.968-17.818 23.654-60.826 86.222-282.982 132.352-494.592 132.352-211.302 0-433.562-46.080-494.234-132.25-9.882-3.482-17.356-12.698-17.356-23.756v-612.558c0-4.558 1.28-8.55 3.38-12.288-1.894-3.584-3.278-7.476-3.278-11.776 0-116.992 263.014-180.122 510.874-180.122 247.758 0 510.926 63.13 510.926 180.122 0 4.506-0.256 8.55-2.356 12.236 1.946 3.584 4.454 7.476 4.454 11.826v177.972c0 0.716 0.308 1.382 0.308 2.15 0 0.512-0.308 0.972-0.308 1.486v200.55c0 0.716 0.308 1.382 0.308 2.098zM512.102 921.754c282.214 0 460.698-73.778 460.698-127.54v-3.020c0-53.76-178.482-127.538-460.698-127.538-284.826 0-459.878 75.162-459.878 129.076 0 53.862 175.052 129.024 459.878 129.024zM51.2 711.22c102.298-64.462 279.092-98.662 461.108-98.662 181.606 0.050 358.094 34.098 460.492 98.304v-123.852c0-53.76-178.482-127.54-460.698-127.54-284.826 0-460.186 75.162-460.186 129.074 0 0.512-0.716 0.972-0.716 1.486v121.19zM51.2 507.086c102.298-64.462 279.092-98.662 461.108-98.662 181.606 0 358.094 34.048 460.492 98.254v-123.854c0-53.76-178.482-127.538-460.698-127.538-284.826 0-460.186 75.162-460.186 129.074 0 0.512-0.716 0.972-0.716 1.486v121.242zM970.702 180.122c0-53.914-174.95-129.074-459.726-129.074s-459.776 75.212-459.776 129.076c0 4.506-1.382 8.55-3.482 12.236 1.996 3.634 3.482 7.526 3.482 11.878v98.662c102.298-64.462 279.092-98.662 461.108-98.662 181.606 0 358.094 34.048 460.492 98.254v-98.254c0-4.558 0.102-8.55 2.202-12.288-1.996-3.584-4.302-7.476-4.302-11.826z" />
<glyph unicode="&#xe628;" glyph-name="distance" d="M776.96 766.464l-562.534-205.568c-13.158-4.812-12.748-11.52 0.818-14.848l259.482-64.614c13.568-3.38 27.392-17.254 30.668-30.874l62.77-260.864c3.278-13.62 9.932-13.978 14.798-0.87l209.1 562.586c4.812 13.056-1.894 19.866-15.104 15.052z" />
<glyph unicode="&#xe629;" glyph-name="dot" d="M819.2 460.8c0-169.662-137.538-307.2-307.2-307.2s-307.2 137.538-307.2 307.2c0 169.662 137.538 307.2 307.2 307.2s307.2-137.538 307.2-307.2z" />
<glyph unicode="&#xe62a;" glyph-name="dotsCircle" d="M552.96 512h-81.92c-5.632 0-10.24-4.608-10.24-10.24v-81.92c0-5.632 4.608-10.24 10.24-10.24h81.92c5.632 0 10.24 4.608 10.24 10.24v81.92c0 5.632-4.608 10.24-10.24 10.24zM512 972.8c-282.318 0-512-229.682-512-512s229.682-512 512-512 512 229.682 512 512c0 282.316-229.682 512-512 512zM512 0c-254.054 0-460.8 206.746-460.8 460.8s206.746 460.8 460.8 460.8 460.8-206.694 460.8-460.8c0-254.054-206.746-460.8-460.8-460.8zM399.36 512h-81.92c-5.632 0-10.24-4.608-10.24-10.24v-81.92c0-5.632 4.608-10.24 10.24-10.24h81.92c5.632 0 10.24 4.608 10.24 10.24v81.92c0 5.632-4.608 10.24-10.24 10.24zM706.56 512h-81.92c-5.632 0-10.24-4.608-10.24-10.24v-81.92c0-5.632 4.608-10.24 10.24-10.24h81.92c5.632 0 10.24 4.608 10.24 10.24v81.92c0 5.632-4.608 10.24-10.24 10.24z" />
<glyph unicode="&#xe62b;" glyph-name="edit" d="M1016.576 704.154l-258.048 261.068c-4.762 4.812-11.316 7.578-18.176 7.578s-13.414-2.714-18.176-7.578l-624.742-631.808c-3.174-3.174-5.376-7.116-6.554-11.47l-90.062-340.992c-2.304-8.654 0.102-17.92 6.35-24.32 4.914-5.068 11.572-7.834 18.432-7.834 1.894 0 3.84 0.206 5.734 0.666l348.16 79.974c4.71 1.076 9.062 3.482 12.442 6.962l624.64 631.808c9.882 9.932 9.882 25.958 0 35.942zM360.754 77.618l-299.622-68.812 77.516 293.428 601.702 608.562 222.054-224.614-601.65-608.564z" />
<glyph unicode="&#xe62c;" glyph-name="editImg" d="M896.666 493.516c-9.626 9.678-26.778 9.728-36.404 0l-288.922-292.198c-3.174-3.174-5.376-7.116-6.554-11.47l-41.626-157.696c-2.304-8.654 0.102-17.92 6.35-24.32 4.914-5.068 11.572-7.834 18.432-7.834 1.894 0 3.84 0.206 5.734 0.666l161.024 36.966c4.71 1.076 9.062 3.482 12.442 6.962l288.922 292.198c9.83 9.984 9.83 26.010 0 35.994l-119.398 120.73zM695.962 85.862l-112.434-25.804 29.082 110.13 265.882 268.954 83.354-84.326-265.882-268.954zM344.422 672c0 33.076-26.778 59.904-59.904 59.904-33.074 0-59.904-26.828-59.904-59.904s26.83-59.904 59.904-59.904c33.126 0.050 59.904 26.828 59.904 59.904zM998.4 921.6h-972.8c-14.132 0-25.6-11.47-25.6-25.6v-768c0-14.13 11.468-25.6 25.6-25.6h435.2c14.132 0 25.6 11.47 25.6 25.6s-11.468 25.6-25.6 25.6h-409.6v716.8h921.6v-358.4c0-14.13 11.47-25.6 25.6-25.6s25.6 11.468 25.6 25.6v384c0 14.132-11.47 25.6-25.6 25.6zM289.486 409.6h343.142c8.448 0 20.274 7.374 26.214 13.312l39.424 40.602c5.938 5.94 7.066 17.254 2.458 24.32l-112.59 172.34c-4.608 7.066-12.39 7.218-17.254 0.308l-81.612-116.020c-4.864-6.912-13.67-7.578-19.558-1.536l-32.562 33.638c-5.888 6.094-15.258 5.836-20.838-0.512l-131.994-152.474c-5.632-6.298-3.276-13.978 5.17-13.978z" />
<glyph unicode="&#xe62d;" glyph-name="editSmall" d="M811.826 609.28l-149.402 151.142c-4.812 4.812-11.366 7.578-18.226 7.578s-13.414-2.714-18.176-7.578l-361.678-365.774c-3.174-3.174-5.376-7.168-6.554-11.47l-52.122-197.428c-2.304-8.654 0.102-17.92 6.348-24.32 4.864-5.068 11.52-7.834 18.382-7.834 1.894 0 3.84 0.206 5.734 0.666l201.524 46.284c4.71 1.076 9.062 3.482 12.442 6.962l361.678 365.774c9.882 9.984 9.882 26.010 0.052 35.994zM418.918 248.78l-152.934-35.124 39.526 149.862 338.688 342.476 113.408-114.74-338.688-342.476z" />
<glyph unicode="&#xe62e;" glyph-name="editText" d="M25.6 512h665.6c14.13 0 25.6 11.47 25.6 25.6s-11.47 25.6-25.6 25.6h-665.6c-14.132 0-25.6-11.47-25.6-25.6s11.468-25.6 25.6-25.6zM25.6 614.4h972.8c14.13 0 25.6 11.468 25.6 25.6s-11.47 25.6-25.6 25.6h-972.8c-14.132 0-25.6-11.47-25.6-25.6s11.468-25.6 25.6-25.6zM25.6 716.8h972.8c14.13 0 25.6 11.47 25.6 25.6s-11.47 25.6-25.6 25.6h-972.8c-14.132 0-25.6-11.47-25.6-25.6s11.468-25.6 25.6-25.6zM25.6 819.2h972.8c14.13 0 25.6 11.468 25.6 25.6s-11.47 25.6-25.6 25.6h-972.8c-14.132 0-25.6-11.468-25.6-25.6s11.468-25.6 25.6-25.6zM1005.722 372.786l-119.346 120.73c-9.626 9.678-26.778 9.728-36.404 0l-288.922-292.198c-3.174-3.174-5.376-7.116-6.554-11.47l-41.626-157.696c-2.304-8.654 0.102-17.92 6.35-24.32 4.864-5.068 11.52-7.834 18.38-7.834 1.894 0 3.84 0.206 5.734 0.666l161.024 36.966c4.71 1.076 9.062 3.482 12.442 6.962l288.922 292.198c9.83 9.932 9.83 26.010 0 35.994zM685.62 85.862l-112.436-25.804 29.082 110.13 265.882 268.954 83.354-84.326-265.882-268.954zM512 332.8c0 14.13-11.468 25.6-25.6 25.6h-460.8c-14.132 0-25.6-11.47-25.6-25.6s11.468-25.6 25.6-25.6h460.8c14.13 0 25.6 11.47 25.6 25.6zM25.6 409.6h563.2c14.13 0 25.6 11.47 25.6 25.6s-11.47 25.6-25.6 25.6h-563.2c-14.132 0-25.6-11.47-25.6-25.6s11.468-25.6 25.6-25.6z" />
<glyph unicode="&#xe62f;" glyph-name="email" d="M998.4 870.4h-972.8c-14.132 0-25.6-11.468-25.6-25.6v-716.8c0-14.13 11.468-25.6 25.6-25.6h972.8c14.13 0 25.6 11.47 25.6 25.6v716.8c0 14.132-11.47 25.6-25.6 25.6zM972.8 153.6h-921.6v536.626l447.59-276.788c4.096-2.56 8.806-3.84 13.466-3.84s9.37 1.28 13.466 3.84l447.078 276.48v-536.32zM972.8 750.13l-460.544-284.826-461.056 285.132v68.762h921.6v-69.070z" />
<glyph unicode="&#xe630;" glyph-name="filter" d="M893.338 804.914c-4.302 8.756-13.21 14.286-22.938 14.286h-716.8c-9.728 0-18.638-5.53-22.938-14.286-4.352-8.754-3.278-19.148 2.662-26.88l276.274-360.192v-222.414c0-8.96 4.658-17.254 12.338-21.914l153.6-92.98c4.044-2.458 8.654-3.686 13.26-3.686 4.302 0 8.704 1.076 12.596 3.278 7.986 4.506 13.004 13.004 13.004 22.272v315.392l276.326 360.244c5.938 7.73 6.962 18.126 2.61 26.88zM568.474 442.060c-3.43-4.454-5.274-9.932-5.274-15.566v-278.682l-102.4 62.004v216.678c0 5.632-1.894 11.11-5.324 15.566l-249.958 325.94h613.018l-250.062-325.94z" />
<glyph unicode="&#xe631;" glyph-name="filterFullHide" d="M0 819.2l307.2-395.162v-247.604l153.6-99.634v347.238l308.378 395.162h-769.178zM1021.134 376.626l-115.712 128.922c-5.326 5.734-13.978 7.68-19.302 1.946l-115.61-131.686c-5.274-5.734-3.226-17.408 4.608-17.408h241.408c7.782 0 9.83 12.494 4.608 18.226z" />
<glyph unicode="&#xe632;" glyph-name="filterFullShow" d="M0 819.2l307.2-395.162v-247.604l153.6-99.634v347.238l308.326 395.162h-769.126zM1021.082 496.794l-115.712-127.386c-5.326-5.734-13.978-6.962-19.302-1.178l-115.558 129.024c-5.274 5.734-3.226 14.746 4.608 14.746h241.356c7.834 0 9.882-9.472 4.608-15.206z" />
<glyph unicode="&#xe633;" glyph-name="filterHide" d="M791.040 804.71c-4.302 8.858-13.21 14.49-23.040 14.49h-716.8c-9.83 0-18.79-5.632-23.040-14.49s-3.124-19.354 2.97-27.034l276.070-347.29v-222.158c0-8.96 4.658-17.254 12.338-21.914l153.6-92.98c4.046-2.458 8.654-3.686 13.262-3.686 4.3 0 8.654 1.076 12.596 3.278 8.038 4.506 13.006 13.056 13.006 22.322v315.188l276.070 347.29c6.042 7.63 7.22 18.126 2.97 26.982zM466.33 455.218c-3.584-4.506-5.53-10.138-5.53-15.924v-278.682l-102.4 62.004v216.678c0 5.786-1.946 11.418-5.53 15.924l-248.628 312.782h610.714l-248.628-312.782zM1021.082 376.626l-115.506 128.922c-5.326 5.734-13.978 7.68-19.25 1.946l-115.354-131.686c-5.274-5.734-3.226-17.408 4.608-17.408h240.948c7.782 0 9.83 12.494 4.558 18.226z" />
<glyph unicode="&#xe634;" glyph-name="filterShow" d="M791.040 807.936c-4.25 8.858-13.21 11.264-23.040 11.264h-716.8c-9.83 0-18.79-2.406-23.040-11.264s-3.124-17.766 2.97-25.446l276.070-345.702v-222.158c0-8.96 4.658-17.254 12.338-21.914l153.6-92.98c4.046-2.51 8.654-3.738 13.262-3.738 4.3 0 8.654 1.076 12.596 3.278 8.038 4.558 13.006 13.056 13.006 22.322v315.188l276.070 345.702c6.092 7.68 7.27 16.588 2.97 25.446zM466.33 458.444c-3.584-4.558-5.53-6.962-5.53-12.75v-278.682l-102.4 62.004v216.678c0 5.786-1.946 8.192-5.53 12.75l-248.628 309.556h610.714l-248.628-309.556zM1021.082 496.794l-115.506-127.386c-5.326-5.734-13.978-6.962-19.25-1.178l-115.354 129.024c-5.326 5.734-3.278 14.746 4.558 14.746h240.948c7.834 0 9.882-9.472 4.608-15.206z" />
<glyph unicode="&#xe635;" glyph-name="flask" d="M976.178 124.774l-310.58 496.078v198.348h8.398c20.122 0 33.178 15.052 41.882 25.038l4.658 5.17c14.388 14.49 19.558 37.018 19.558 51.866 0 18.534-7.322 36.966-19.558 49.254-14.95 15.002-30.158 22.272-46.542 22.272h-323.276c-17.766 0-33.844-6.758-46.642-19.558-12.646-12.75-19.354-28.826-19.354-46.592 0-13.056 4.046-41.83 19.354-57.242l4.658-5.12c8.704-9.984 21.862-25.088 41.984-25.088h7.68v-198.4l-310.222-496.026c-35.122-55.808-26.214-97.382-12.646-122.368 13.158-24.422 43.47-53.606 113.050-53.606h727.5c54.578 0 92.058 18.022 111.36 53.606 13.824 25.65 23.092 67.686-11.264 122.368zM409.6 606.106v264.294h-25.6l-28.314-1.076c-1.844 1.076-5.94 5.836-8.396 8.654-2.458 2.764-4.762 5.376-6.4 6.962-2.15 3.022-5.018 14.286-5.018 21.71 0 4.302 1.228 7.218 4.454 10.444s6.246 4.506 10.394 4.506h323.278c0.154 0 3.226-0.052 10.24-7.22 2.764-2.714 4.658-8.14 4.658-13.106 0-6.4-2.764-13.876-4.658-15.718-2.254-2.254-4.608-4.916-7.014-7.73-1.894-2.15-4.812-5.53-6.86-7.424h-55.962v-264.294l155.086-247.706h-514.816l154.932 247.706zM942.386 26.726c-3.584-6.554-14.49-26.726-66.304-26.726h-727.5c-24.474 0-56.116 4.608-67.994 26.778-3.84 7.066-15.564 28.62 10.956 70.81l131.122 209.614h578.97l131.226-209.664c17.254-27.494 20.378-50.636 9.524-70.81z" />
<glyph unicode="&#xe636;" glyph-name="floater" d="M1024 461.21c0 59.442-10.702 117.402-30.77 172.954l1.126 0.462-9.882 23.654c-51.968 124.314-153.19 225.076-277.708 276.532l-23.654 9.83-0.512-1.178c-111.154 39.476-233.010 39.066-343.45-0.716l-0.512 1.178-23.654-9.882c-124.108-51.968-224.818-153.242-276.224-277.812l-9.83-23.706 1.126-0.462c-19.558-55.040-30.054-112.282-30.054-170.854 0-59.444 10.702-117.35 30.772-172.902l-1.126-0.462 9.882-23.654c51.866-124.212 152.986-225.024 277.452-276.48 0 0 0-0.052 0.050-0.052s0.102-0.052 0.154-0.052l23.5-9.728 0.462 1.126c54.988-19.66 112.23-30.208 170.854-30.208 59.392 0 117.248 10.752 172.698 30.77l0.462-1.126 23.654 9.882c124.212 51.918 224.974 153.19 276.378 277.812l9.778 23.706-1.126 0.462c19.61 54.99 30.156 112.282 30.156 170.906zM663.398 896.614l-58.624-142.49c-60.518 19.456-126.72 19.25-186.982-0.256l-59.188 142.132c97.792 34.714 206.438 35.072 304.794 0.614zM77.516 307.814c-17.46 49.254-26.318 100.762-26.318 153.396 0 51.866 8.652 102.706 25.754 151.502l142.028-58.522c-9.574-30.054-14.438-61.236-14.438-92.978 0-32.256 4.966-63.846 14.848-94.26l-141.876-59.136zM360.448 25.856l58.572 142.336c60.466-19.302 126.77-19.098 186.932 0.41l59.238-142.234c-97.74-34.714-206.592-34.918-304.742-0.512zM748.442 363.93l-0.052-0.154c-25.702-62.31-76.032-112.998-138.138-138.956-62.004-26.062-133.018-26.318-195.534-0.512l-0.204 0.102c-62.362 25.754-112.998 76.134-138.956 138.292 0 0 0 0 0 0.052-13.108 31.334-19.764 64.462-19.764 98.51 0 33.536 6.502 66.356 19.354 97.536 25.754 62.26 76.186 112.948 138.342 138.854 62.26 26.010 133.326 26.164 195.788 0.308 62.26-25.804 112.846-76.236 138.752-138.394 13.106-31.282 19.712-64.41 19.712-98.406 0-33.486-6.502-66.202-19.302-97.23zM947.046 309.554l-142.54 58.726c9.574 30.004 14.438 61.184 14.438 92.928 0 32.204-4.966 63.796-14.798 94.106l142.336 59.34c17.458-49.254 26.318-100.71 26.318-153.446 0-51.918-8.654-102.81-25.754-151.654z" />
<glyph unicode="&#xe637;" glyph-name="forecast" d="M998.35 972.8h-972.8c-14.182 0-25.548-11.468-25.548-25.6v-972.8c0-14.13 11.366-25.6 25.548-25.6h972.8c14.13 0 25.65 11.47 25.65 25.6v715.572c0 1.844 0 3.686 0 5.478v251.75c0 14.13-11.52 25.6-25.65 25.6zM256 0h-204.8v243.098l204.8-47.668v-195.43zM512 0h-204.8v204.8c0 0.206-0.102 0.41-0.102 0.614l204.902 216.678v-422.092zM768 0h-204.8v453.376l204.8-52.686v-400.692zM972.8 0h-153.6v409.6c0 0.666-0.308 1.178-0.358 1.842l153.958 202.958v-614.4zM972.8 699.136l-189.338-249.6-239.514 61.644c-8.96 2.252-18.586-0.462-24.986-7.218l-245.862-259.994-221.902 51.662v625.972h921.6v-222.464z" />
<glyph unicode="&#xe638;" glyph-name="gear" d="M1007.002 550.452l-70.758 25.19c-20.274 7.168-36.506 22.578-44.646 42.394-8.192 19.762-7.63 42.24 1.536 61.644l32.206 67.788c4.658 9.778 2.662 21.402-5.018 29.082l-92.62 92.57c-7.63 7.68-19.302 9.626-29.030 5.068l-67.89-32.154c-19.098-9.164-42.086-9.728-61.594-1.69-19.764 8.242-35.174 24.474-42.342 44.698l-25.294 70.81c-3.634 10.138-13.312 16.948-24.116 16.948h-130.97c-10.854 0-20.48-6.81-24.166-17.050l-25.036-70.656c-7.27-20.274-22.784-36.556-42.342-44.698-19.866-8.192-42.394-7.63-61.748 1.586l-67.892 32.154c-9.778 4.608-21.454 2.61-29.030-5.068l-92.62-92.518c-7.63-7.68-9.626-19.302-4.966-29.082l32.206-67.84c9.216-19.354 9.778-41.83 1.638-61.594-8.192-19.764-24.526-35.226-44.748-42.394l-70.758-25.19c-10.19-3.634-16.998-13.312-16.998-24.116v-131.124c0-10.802 6.81-20.48 17.050-24.116l70.706-25.14c20.224-7.168 36.506-22.63 44.698-42.342 8.192-19.814 7.578-42.29-1.638-61.644l-32.204-67.84c-4.608-9.778-2.612-21.402 5.070-29.082l92.62-92.62c7.578-7.68 19.252-9.678 29.030-5.018l67.89 32.154c19.098 9.164 42.086 9.728 61.594 1.586 19.762-8.244 35.174-24.474 42.342-44.596l25.19-70.758c3.584-10.188 13.262-16.998 24.116-16.998h131.022c10.802 0 20.48 6.81 24.116 16.998l25.088 70.4c7.322 20.378 22.886 36.812 43.008 45.106 19.15 8.090 41.83 7.476 60.826-1.486l68.198-32.358c9.932-4.658 21.452-2.61 29.082 5.018l92.62 92.62c7.63 7.63 9.626 19.25 5.068 29.082l-32.256 68.044c-9.216 19.2-9.728 41.626-1.536 61.39 8.192 19.814 24.524 35.278 44.75 42.446l70.656 25.14c10.086 3.534 16.896 13.21 16.896 24.014v131.124c0 10.802-6.81 20.48-16.998 24.116zM972.8 413.286l-53.606-19.098c-33.74-11.93-61.082-37.836-75.058-71.116-13.67-33.23-12.596-70.758 2.764-102.962l24.524-51.61-67.124-67.072-51.968 24.626c-32.102 15.104-70.196 15.974-102.35 2.51-33.332-13.774-59.392-41.164-71.526-75.162l-19.046-53.402h-94.926l-19.15 53.76c-11.98 33.74-37.786 60.98-70.86 74.702-32.87 13.67-71.27 12.698-103.27-2.61l-51.558-24.422-67.122 67.072 24.474 51.506c15.412 32.308 16.384 69.888 2.714 103.322-13.824 33.076-41.114 58.88-74.854 70.86l-53.658 19.098v94.976l53.76 19.098c33.74 12.032 61.030 37.888 74.906 71.066 13.618 33.228 12.646 70.86-2.816 103.168l-24.474 51.508 67.124 67.020 51.508-24.422c32.050-15.206 70.194-16.178 103.27-2.61 32.974 13.722 58.778 40.908 71.014 74.752l19.046 53.76h94.874l19.25-53.76c11.98-33.792 37.836-61.030 71.014-74.752 32.972-13.568 71.168-12.494 103.116 2.662l51.558 24.422 67.124-67.020-24.474-51.456c-15.462-32.462-16.384-70.094-2.662-103.22 13.67-33.074 40.908-58.982 74.752-71.014l53.708-19.2v-94.976zM512 685.106c-123.648 0-224.256-100.608-224.256-224.306s100.608-224.358 224.256-224.358c123.698 0 224.358 100.658 224.358 224.358s-100.658 224.306-224.358 224.306zM512 287.642c-95.386 0-173.056 77.67-173.056 173.158 0 95.438 77.67 173.106 173.056 173.106 95.488 0 173.158-77.67 173.158-173.106 0-95.488-77.67-173.158-173.158-173.158z" />
<glyph unicode="&#xe639;" glyph-name="graphCircle" d="M512 972.8c-282.318 0-512-229.682-512-512s229.682-512 512-512 512 229.682 512 512c0 282.316-229.682 512-512 512zM512 0c-254.054 0-460.8 206.746-460.8 460.8s206.746 460.8 460.8 460.8 460.8-206.694 460.8-460.8c0-254.054-206.694-460.8-460.8-460.8zM910.438 363.674l-109.824 107.572c-9.626 9.42-24.884 9.778-34.97 0.82l-100.914-90.010-219.854 261.838c-5.12 6.092-13.312 9.574-20.686 9.114-7.936-0.358-15.31-4.352-19.866-10.854l-180.122-256.82-74.546 76.186c-9.882 10.086-26.062 10.29-36.198 0.41-10.086-9.882-10.29-26.112-0.41-36.198l96.102-98.202c5.324-5.428 12.594-7.986 20.378-7.63 7.578 0.614 14.54 4.608 18.894 10.802l178.688 254.772 215.398-256.512c4.454-5.326 10.854-8.55 17.766-9.062 0.614-0.052 1.23-0.052 1.842-0.052 6.246 0 12.34 2.304 17.050 6.502l102.706 91.648 92.722-90.828c10.138-9.882 26.318-9.678 36.25 0.358 9.83 10.034 9.678 26.266-0.41 36.148z" />
<glyph unicode="&#xe63a;" glyph-name="grid" d="M102.4 665.6h204.8v204.8h-204.8v-204.8zM102.4 358.4h204.8v204.8h-204.8v-204.8zM102.4 51.2h204.8v204.8h-204.8v-204.8zM409.6 358.4h204.8v204.8h-204.8v-204.8zM409.6 51.2h204.8v204.8h-204.8v-204.8zM716.8 870.4v-204.8h204.8v204.8h-204.8zM716.8 358.4h204.8v204.8h-204.8v-204.8zM409.6 665.6h204.8v204.8h-204.8v-204.8zM716.8 51.2h204.8v204.8h-204.8v-204.8z" />
<glyph unicode="&#xe63b;" glyph-name="help" d="M481.332 206.386h50.944v56.422h-50.944v-56.422zM512 972.8c-282.318 0-512-229.682-512-512s229.682-512 512-512 512 229.682 512 512c0 282.316-229.682 512-512 512zM512 0c-254.054 0-460.8 206.746-460.8 460.8s206.746 460.8 460.8 460.8 460.8-206.694 460.8-460.8c0-254.054-206.746-460.8-460.8-460.8zM512.512 747.366c-40.55 0-73.83-11.622-99.994-34.816-26.112-23.194-38.81-54.938-38.094-95.232l0.716-2.202h41.012c0.204 28.57 9.166 51.2 26.726 67.942s40.806 25.088 69.582 25.088c30.77 0 54.426-8.55 71.066-25.6 16.59-17.050 24.884-41.268 24.884-72.55 0-28.314-6.042-51.662-18.126-70.144-12.082-18.432-31.334-41.37-57.702-68.66-22.682-20.736-36.608-37.376-41.728-50.022-5.12-12.596-7.834-34.866-8.038-66.816h43.57c0 23.45 1.638 40.754 4.966 52.020s12.494 23.296 27.648 36.25c29.798 27.854 52.788 54.528 69.068 80.026 16.23 25.548 24.37 54.734 24.37 87.706 0 41.984-12.39 75.316-37.172 99.994-24.832 24.678-59.086 37.018-102.758 37.018z" />
<glyph unicode="&#xe63c;" glyph-name="home" d="M1011.968 662.99l-489.42 305.92c-8.346 5.222-18.894 5.222-27.29-0.050l-483.38-305.92c-7.374-4.71-11.878-12.852-11.878-21.658v-665.394c0-14.13 11.468-27.086 25.6-27.086h307.2c14.13 0 25.6 12.954 25.6 27.086v433.714h307.2v-433.714c0-14.13 11.47-27.086 25.6-27.086h307.2c14.13 0 25.6 12.954 25.6 27.086v665.394c0 8.858-4.558 17.050-12.032 21.71zM972.8 0h-256v436.684c0 14.182-11.47 24.116-25.6 24.116h-358.4c-14.13 0-25.6-9.932-25.6-24.116v-436.684h-256v627.2l457.882 289.74 463.718-289.842v-627.098z" />
<glyph unicode="&#xe63d;" glyph-name="info" d="M486.4 537.6c-14.13 0-25.6-11.468-25.6-25.6v-204.8c0-14.13 11.468-25.6 25.6-25.6s25.6 11.47 25.6 25.6v204.8c0 14.132-11.468 25.6-25.6 25.6zM486.4 682.138c-21.248 0-38.4-17.1-38.4-38.4 0-21.248 17.152-38.4 38.4-38.4s38.4 17.152 38.4 38.4c0 21.298-17.152 38.4-38.4 38.4zM486.4 870.4c-211.764 0-384-172.236-384-384s172.236-384 384-384 384 172.236 384 384-172.236 384-384 384zM486.4 153.6c-183.5 0-332.8 149.298-332.8 332.8s149.3 332.8 332.8 332.8 332.8-149.298 332.8-332.8-149.298-332.8-332.8-332.8z" />
<glyph unicode="&#xe63e;" glyph-name="layers" d="M1024 551.73c0 9.984-5.938 19.046-15.154 23.040l-96.154 42.292 96.154 42.292c9.216 4.044 15.154 13.106 15.154 23.040 0 9.984-5.938 19.046-15.154 23.040l-486.4 213.966c-6.706 2.918-14.182 2.918-20.89 0l-486.4-213.966c-9.216-4.044-15.154-13.056-15.154-23.040 0-9.932 5.94-18.996 15.154-23.040l96.154-42.292-96.154-42.292c-9.216-4.044-15.154-13.056-15.154-23.040 0-9.932 5.94-18.996 15.154-23.040l96.154-42.292-96.154-42.292c-9.216-4.044-15.154-13.106-15.154-23.040 0-9.984 5.94-19.046 15.154-23.040l96.204-42.342-96.204-42.292c-9.216-4.044-15.154-13.106-15.154-23.040 0-9.984 5.94-19.046 15.154-23.040l486.4-213.914c3.328-1.486 6.912-2.202 10.446-2.202s7.116 0.716 10.446 2.202l486.4 213.914c9.216 4.044 15.156 13.056 15.156 23.040 0 9.932-5.938 18.996-15.154 23.040l-96.206 42.29 96.206 42.342c9.216 4.044 15.154 13.056 15.154 23.040 0 9.932-5.938 18.996-15.154 23.040l-96.154 42.292 96.154 42.29c9.216 4.046 15.154 13.106 15.154 23.040zM88.474 682.394l423.526 186.318 423.526-186.318-423.526-186.266-423.526 186.266zM935.578 290.354l-423.526-186.266-423.526 186.266 85.71 37.682 327.424-144.026c3.328-1.434 6.912-2.15 10.446-2.15s7.116 0.716 10.446 2.15l327.424 144.026 85.606-37.682zM935.578 421.068l-423.526-186.318-423.526 186.318 85.71 37.684 327.424-143.974c3.328-1.434 6.912-2.202 10.446-2.202s7.116 0.768 10.446 2.202l327.424 143.974 85.606-37.684zM839.424 509.44l-327.424-143.974-423.526 186.266 85.71 37.682 327.424-143.974c3.328-1.434 6.912-2.202 10.446-2.202s7.116 0.768 10.446 2.202l327.424 143.974 85.71-37.682-96.206-42.29z" />
<glyph unicode="&#xe63f;" glyph-name="line" d="M665.6 512h-307.2c-14.132 0-25.6-11.468-25.6-25.6s11.468-25.6 25.6-25.6h307.2c14.13 0 25.6 11.468 25.6 25.6s-11.47 25.6-25.6 25.6z" />
<glyph unicode="&#xe640;" glyph-name="linesCircle" d="M673.638 409.6h-324.25c-14.13 0-25.6-11.47-25.6-25.6s11.468-25.6 25.6-25.6h324.25c14.13 0 25.6 11.47 25.6 25.6s-11.47 25.6-25.6 25.6zM673.638 512h-324.25c-14.13 0-25.6-11.468-25.6-25.6s11.468-25.6 25.6-25.6h324.25c14.13 0 25.6 11.468 25.6 25.6s-11.47 25.6-25.6 25.6zM512 972.8c-282.318 0-512-229.682-512-512s229.682-512 512-512 512 229.682 512 512c0 282.316-229.682 512-512 512zM512 0c-254.054 0-460.8 206.746-460.8 460.8s206.746 460.8 460.8 460.8 460.8-206.694 460.8-460.8c0-254.054-206.694-460.8-460.8-460.8zM673.638 614.4h-324.25c-14.13 0-25.6-11.47-25.6-25.6s11.418-25.6 25.6-25.6h324.25c14.13 0 25.6 11.468 25.6 25.6s-11.47 25.6-25.6 25.6z" />
<glyph unicode="&#xe641;" glyph-name="linkSmall" d="M768.206 717.004c-32.768 32.87-76.186 50.996-122.266 50.996h-0.052c-44.596 0-86.374-17.152-117.452-48.282l-84.428-84.276c-9.984-9.984-9.984-26.214 0-36.198 9.984-10.036 26.214-9.984 36.198-0.052l84.428 84.326c21.452 21.452 50.33 33.28 81.254 33.28 0 0 0 0 0.052 0 32.358 0 62.924-12.8 86.068-35.994 22.784-22.732 35.534-52.736 35.994-84.53 0.41-31.538-11.47-60.928-33.332-82.842l-84.326-84.326c-9.984-9.984-9.984-26.214 0-36.198 5.018-5.018 11.572-7.476 18.126-7.476s13.106 2.51 18.126 7.476l84.326 84.326c31.744 31.744 48.896 74.29 48.282 119.706-0.666 45.21-18.74 87.86-50.996 120.064zM543.744 322.458l-84.326-84.274c-21.504-21.554-50.38-33.382-81.306-33.382-0.050 0-0.050 0-0.050 0-32.358 0-62.926 12.8-86.068 35.994-23.246 23.142-35.994 53.76-35.994 86.118 0 30.924 11.826 59.75 33.382 81.254l84.326 84.378c9.984 9.984 9.984 26.214 0 36.198s-26.214 9.984-36.198 0l-84.276-84.326c-31.232-31.13-48.436-72.858-48.436-117.452 0-46.080 18.126-89.548 50.996-122.368 32.768-32.87 76.186-50.996 122.266-50.996 0 0 0 0 0.050 0 44.596 0 86.374 17.152 117.504 48.332l84.326 84.274c9.984 9.984 9.984 26.214 0 36.198s-26.214 10.034-36.198 0.052z" />
<glyph unicode="&#xe642;" glyph-name="linkSmallHorizontal" d="M268.85 563.2h140.75c14.13 0 25.6 11.468 25.6 25.6s-11.468 25.6-25.6 25.6h-140.75c-44.082 0-85.094-16.742-115.456-47.154-32.922-32.974-51.046-79.872-50.996-132.046-0.052-50.636 18.126-96.768 51.2-129.842 31.796-31.846 74.342-49.356 119.91-49.356h136.090c14.13 0 25.6 11.47 25.6 25.6s-11.468 25.6-25.6 25.6h-136.090c-31.846 0-61.542 12.186-83.712 34.304-23.706 23.808-36.25 56.166-36.198 93.696-0.050 38.502 12.748 72.55 35.994 95.846 20.686 20.736 48.844 32.154 79.258 32.154zM845.004 567.246c-30.362 30.414-71.374 47.156-115.456 47.156h-166.348c-14.13 0-25.6-11.47-25.6-25.6s11.47-25.6 25.6-25.6h166.348c30.414 0 58.572-11.418 79.258-32.154 23.246-23.296 36.044-57.344 35.994-95.898 0.052-37.478-12.494-69.836-36.198-93.644-22.17-22.118-51.866-34.304-83.712-34.304h-161.69c-14.13 0-25.6-11.47-25.6-25.6s11.47-25.6 25.6-25.6h161.69c45.568 0 88.116 17.51 119.91 49.356 33.076 33.076 51.25 79.206 51.2 129.792 0.052 52.224-18.074 99.124-50.996 132.096z" />
<glyph unicode="&#xe643;" glyph-name="list" d="M102.4 51.2h819.2v204.8h-819.2v-204.8zM102.4 358.4h819.2v204.8h-819.2v-204.8zM102.4 870.4v-204.8h819.2v204.8h-819.2z" />
<glyph unicode="&#xe644;" glyph-name="location" d="M486.348 819.2c-98.816 0-179.15-80.384-179.15-179.25 0-98.766 80.334-179.15 179.15-179.15 98.868 0 179.252 80.384 179.252 179.15 0 98.866-80.384 179.25-179.25 179.25zM486.348 512c-70.554 0-127.95 57.394-127.95 127.95 0 70.606 57.394 128.050 127.95 128.050 70.604 0 128.050-57.446 128.050-128.050 0-70.554-57.446-127.95-128.050-127.95zM486.452 972.8c-183.552 0-332.85-149.708-332.85-333.772 0-152.116 99.584-320.308 237.466-553.062 23.398-39.476 47.974-80.896 73.318-124.416 4.506-7.884 12.954-12.75 22.068-12.75s17.562 4.864 22.118 12.75c25.242 43.366 49.714 84.634 73.012 123.956 137.932 232.96 237.62 401.306 237.62 553.524 0 184.064-149.248 333.774-332.75 333.774zM537.498 111.616c-16.486-27.852-33.536-56.626-51.046-86.476-17.612 29.952-34.764 58.932-51.354 86.938-133.682 225.74-230.298 388.864-230.298 526.95 0 155.802 126.362 282.572 281.652 282.572 155.238 0 281.548-126.77 281.548-282.572 0-138.188-96.716-301.466-230.502-527.41z" />
<glyph unicode="&#xe645;" glyph-name="locationError" d="M584.192 744.346c-10.292 9.984-26.982 9.984-37.326 0l-60.416-58.674-60.466 58.674c-10.29 9.984-26.93 9.984-37.324 0-10.29-9.984-10.29-26.214 0-36.198l60.466-58.676-60.518-58.726c-10.29-9.984-10.29-26.214 0-36.198 5.12-5.018 11.878-7.474 18.638-7.474s13.516 2.51 18.638 7.474l60.518 58.726 60.518-58.726c5.172-5.018 11.878-7.474 18.638-7.474s13.518 2.51 18.636 7.474c10.292 9.984 10.292 26.214 0 36.198l-60.518 58.726 60.518 58.676c10.292 9.984 10.292 26.214 0 36.198zM486.502 972.8c-183.808 0-332.902-145.202-332.902-324.404 0-179.046 145.716-387.226 332.902-699.596 187.084 312.37 332.698 520.55 332.698 699.596 0 179.2-148.788 324.404-332.698 324.404zM486.502 442.982c-117.556 0-212.634 92.416-212.634 206.336 0 114.074 95.078 206.542 212.634 206.542 117.452 0 212.736-92.466 212.736-206.542 0-113.868-95.284-206.336-212.736-206.336z" />
<glyph unicode="&#xe646;" glyph-name="locationSmall" d="M486.452 819.2c-127.232 0-230.452-101.632-230.452-227.072 0-125.338 100.916-271.052 230.452-489.728 129.536 218.674 230.348 364.39 230.348 489.728 0 125.44-103.066 227.072-230.348 227.072zM486.452 448.358c-81.408 0-147.2 64.718-147.2 144.436 0 79.872 65.792 144.59 147.2 144.59 81.356 0 147.302-64.718 147.302-144.59 0-79.718-65.946-144.436-147.302-144.436z" />
<glyph unicode="&#xe647;" glyph-name="mobile" d="M460.8 153.6h102.4c14.13 0 25.6 11.47 25.6 25.6s-11.47 25.6-25.6 25.6h-102.4c-14.13 0-25.6-11.47-25.6-25.6s11.468-25.6 25.6-25.6zM742.4 870.4h-460.8c-42.342 0-76.8-34.458-76.8-76.8v-665.6c0-42.342 34.458-76.8 76.8-76.8h460.8c42.342 0 76.8 34.458 76.8 76.8v665.6c0 42.342-34.458 76.8-76.8 76.8zM768 128c0-14.13-11.52-25.6-25.6-25.6h-460.8c-14.080 0-25.6 11.47-25.6 25.6v128h512v-128zM768 307.2h-512v486.4c0 14.132 11.52 25.6 25.6 25.6h460.8c14.080 0 25.6-11.468 25.6-25.6v-486.4z" />
<glyph unicode="&#xe648;" glyph-name="moon" d="M480.614 460.8c0 140.954 100.198 258.406 236.186 294.604-27.75 7.374-56.576 12.596-86.836 12.596-178.176 0-322.764-137.574-322.764-307.2s144.588-307.2 322.764-307.2c30.26 0 59.086 5.222 86.836 12.596-135.986 36.198-236.186 153.652-236.186 294.606z" />
<glyph unicode="&#xe649;" glyph-name="moonLine" d="M430.848 460.8c0 113.818 65.638 214.734 159.538 245.452l75.212 24.628-75.212 24.524c-26.164 8.602-48.794 12.596-71.014 12.596-145.202 0-263.372-137.778-263.372-307.2s118.17-307.2 263.372-307.2c22.272 0 44.85 3.994 71.066 12.596l75.162 24.524-75.212 24.576c-93.902 30.77-159.538 131.686-159.538 245.504zM301.722 460.8c0 135.066 89.344 246.016 202.138 255.334-72.448-55.654-118.734-151.040-118.734-255.334s46.234-199.68 118.682-255.334c-112.742 9.318-202.086 120.27-202.086 255.334z" />
<glyph unicode="&#xe64a;" glyph-name="more" d="M604.16 870.4h-184.32c-5.632 0-10.24-4.608-10.24-10.24v-184.32c0-5.632 4.608-10.24 10.24-10.24h184.32c5.632 0 10.24 4.608 10.24 10.24v184.32c0 5.632-4.608 10.24-10.24 10.24zM604.16 256h-184.32c-5.632 0-10.24-4.608-10.24-10.24v-184.32c0-5.632 4.608-10.24 10.24-10.24h184.32c5.632 0 10.24 4.608 10.24 10.24v184.32c0 5.632-4.608 10.24-10.24 10.24zM604.16 563.2h-184.32c-5.632 0-10.24-4.608-10.24-10.24v-184.32c0-5.632 4.608-10.24 10.24-10.24h184.32c5.632 0 10.24 4.608 10.24 10.24v184.32c0 5.632-4.608 10.24-10.24 10.24z" />
<glyph unicode="&#xe64b;" glyph-name="moreLeft" d="M142.592 633.19l-133.53-153.19c-9.42-10.548-12.34-27.75-3.020-38.246l136.858-153.294c9.37-10.548 10.7-7.63 10.7 6.452v331.776c0 14.080-1.69 16.998-11.008 6.502zM307.2 153.6h716.8v153.6h-716.8v-153.6zM307.2 409.6h716.8v153.6h-716.8v-153.6zM307.2 819.2v-153.6h716.8v153.6h-716.8z" />
<glyph unicode="&#xe64c;" glyph-name="moreRight" d="M0 153.6h716.8v153.6h-716.8v-153.6zM0 409.6h716.8v153.6h-716.8v-153.6zM0 665.6h716.8v153.6h-716.8v-153.6zM1013.658 480l-133.324 153.19c-9.422 10.496-9.932 7.578-9.932-6.502v-331.776c0-14.080 0.512-16.998 9.882-6.452l134.912 153.294c9.37 10.496 7.834 27.7-1.536 38.246z" />
<glyph unicode="&#xe64d;" glyph-name="network" d="M793.6 639.95c-59.648 0-112.178-29.594-144.794-74.548l-249.958 169.318c6.502 18.534 10.752 38.144 10.752 58.88 0 98.766-80.384 179.2-179.2 179.2s-179.2-80.434-179.2-179.2c0-98.816 80.384-179.2 179.2-179.2 59.648 0 112.178 29.594 144.794 74.548l249.958-169.318c-6.502-18.534-10.752-38.144-10.752-58.88s4.25-40.346 10.702-58.83l-249.908-169.318c-32.614 44.954-85.198 74.548-144.794 74.548-98.816 0-179.2-80.384-179.2-179.2 0-98.764 80.384-179.15 179.2-179.15s179.2 80.384 179.2 179.2c0 20.736-4.25 40.346-10.702 58.828l249.908 169.268c32.614-44.954 85.146-74.548 144.794-74.548 98.816 0 179.2 80.384 179.2 179.2s-80.384 179.2-179.2 179.2zM230.4 665.6c-70.554 0-128 57.394-128 128s57.446 128 128 128 128-57.446 128-128-57.446-128-128-128zM230.4 0c-70.554 0-128 57.394-128 128s57.446 128 128 128 128-57.446 128-128-57.446-128-128-128zM793.6 332.748c-70.554 0-128 57.446-128 128s57.446 128 128 128 128-57.446 128-128-57.446-128-128-128z" />
<glyph unicode="&#xe64e;" glyph-name="noData" d="M512 972.8c-282.318 0-512-229.682-512-512s229.682-512 512-512 512 229.682 512 512c0 282.316-229.682 512-512 512zM51.2 460.8c0 254.054 206.746 460.8 460.8 460.8 117.76 0 225.076-44.8 306.586-117.76l-649.626-649.626c-72.96 81.562-117.76 188.826-117.76 306.586zM512 0c-117.914 0-225.23 44.902-306.842 118.016l649.626 649.626c73.114-81.562 118.016-188.928 118.016-306.842 0-254.054-206.746-460.8-460.8-460.8z" />
<glyph unicode="&#xe64f;" glyph-name="note" d="M810.956 606.566c-0.102 0.102-0.154 0.256-0.256 0.358l-3.738 3.738-251.802 252.212c-3.226 3.278-7.322 5.068-11.674 6.246-1.076 0.308-2.048 0.512-3.226 0.666-1.076 0.102-2.048 0.614-3.226 0.614h-306.688c-14.080 0-25.55-11.468-25.55-25.6v-768c0-14.13 11.468-25.6 25.55-25.6h562.278c14.13 0 26.572 11.47 26.572 25.6v507.034c0 1.638 0.512 3.226 0.512 4.966 0 7.22-3.994 13.106-8.754 17.766zM563.2 783.002l167.73-168.602h-167.73v168.602zM768 102.4h-512v716.8h256v-230.4c0-14.13 10.956-25.6 25.038-25.6h230.962v-460.8z" />
<glyph unicode="&#xe650;" glyph-name="okBox" d="M435.866 318.618c0.050-0.052 0.154-0.052 0.204-0.102s0.050-0.102 0.102-0.154c2.458-2.458 5.428-3.84 8.346-5.478 1.434-0.818 2.714-2.15 4.198-2.764 4.608-1.946 9.524-2.918 14.438-2.918s9.778 0.972 14.438 2.816c1.894 0.768 3.38 2.356 5.222 3.43 2.51 1.536 5.222 2.714 7.372 4.864 0.050 0.052 0.050 0.102 0.102 0.102 0.050 0.052 0.154 0.052 0.204 0.154l228.046 230.4c14.9 15.052 14.798 39.424-0.308 54.322-15.002 14.9-39.424 14.798-54.322-0.256l-200.754-202.804-103.066 104.090c-14.9 15.104-39.27 15.206-54.272 0.308-15.104-14.95-15.206-39.218-0.308-54.322l130.354-131.686zM998.4 972.8h-972.8c-14.132 0-25.6-11.468-25.6-25.6v-972.8c0-14.13 11.468-25.6 25.6-25.6h972.8c14.13 0 25.6 11.47 25.6 25.6v972.8c0 14.132-11.47 25.6-25.6 25.6zM972.8 0h-921.6v921.6h921.6v-921.6z" />
<glyph unicode="&#xe651;" glyph-name="okBoxInv" d="M972.8 972.8h-921.6c-28.314 0-51.2-22.938-51.2-51.2v-921.6c0-28.262 22.886-51.2 51.2-51.2h921.6c28.314 0 51.2 22.938 51.2 51.2v921.6c0 28.262-22.886 51.2-51.2 51.2zM724.378 536.372l-223.692-223.54c-9.984-9.984-23.092-14.95-36.198-14.95s-26.214 5.018-36.198 15.002l-127.796 127.794c-20.020 20.020-20.020 52.378 0 72.398s52.378 20.020 72.396 0l91.596-91.598 187.494 187.392c20.020 19.968 52.378 19.968 72.398 0s19.968-52.53 0-72.5z" />
<glyph unicode="&#xe652;" glyph-name="okCircle" d="M673.126 587.316l-199.116-198.656-123.136 122.88c-9.932 9.934-26.214 9.984-36.198-0.050-9.984-9.984-9.984-26.214 0.050-36.198l141.21-140.954c4.966-4.966 11.52-7.476 18.074-7.476s13.056 2.51 18.074 7.476l217.19 216.678c10.034 9.984 10.034 26.214 0.052 36.198-9.984 10.086-26.214 10.034-36.198 0.102zM512 972.8c-282.318 0-512-229.682-512-512s229.682-512 512-512 512 229.682 512 512c0 282.368-229.682 512-512 512zM512 0c-254.054 0-460.8 206.746-460.8 460.8s206.746 460.8 460.8 460.8 460.8-206.694 460.8-460.8c0-254.054-206.746-460.8-460.8-460.8z" />
<glyph unicode="&#xe653;" glyph-name="okCircleInv" d="M512 819.2c-197.99 0-358.4-160.512-358.4-358.4s160.41-358.4 358.4-358.4 358.4 160.512 358.4 358.4-160.41 358.4-358.4 358.4zM682.292 513.894l-170.394-167.63c0 0 0-0.052 0-0.052-0.050 0-0.050 0-0.050 0l-0.562-0.614c-3.174-3.124-7.014-4.864-10.65-7.014-2.048-1.178-3.788-3.072-5.99-3.942-6.194-2.51-12.698-3.788-19.25-3.788s-13.108 1.28-19.25 3.788c-1.894 0.768-3.43 2.406-5.222 3.43-3.994 2.202-8.038 4.198-11.468 7.476l-97.792 96.206c-20.122 19.968-20.378 52.326-0.562 72.5 19.866 20.174 52.274 20.378 72.448 0.614l61.85-60.878 135.116 132.916c20.122 19.814 52.582 19.558 72.398-0.614s19.558-52.582-0.614-72.396z" />
<glyph unicode="&#xe654;" glyph-name="okCircleSmall" d="M512 768c-169.626 0-307.2-137.522-307.2-307.2s137.574-307.2 307.2-307.2 307.2 137.524 307.2 307.2-137.574 307.2-307.2 307.2zM676.044 505.6l-162.202-162.1c-9.984-9.984-13.414-14.95-26.522-14.95s-26.522 5.018-26.522 15.002v0.052l-102.348 92.62c-20.020 19.968-24.832 52.378-4.864 72.398s49.972 20.020 69.99 0l55.296-56.474 125.388 125.902c20.020 19.968 52.122 19.968 72.14 0 19.968-20.020 19.66-52.43-0.358-72.448z" />
<glyph unicode="&#xe655;" glyph-name="okSmall" d="M811.264 658.482c-10.24 9.778-26.47 9.472-36.198-0.87l-322.816-338.894-203.314 213.658c-9.778 10.29-26.010 10.598-36.198 0.922-10.24-9.728-10.65-25.958-0.922-36.198l221.85-233.166c4.864-5.068 11.572-7.936 18.586-7.936s13.722 2.866 18.534 7.936l341.35 358.4c9.778 10.188 9.37 26.418-0.87 36.146z" />
<glyph unicode="&#xe656;" glyph-name="paid" d="M870.4 716.8h-665.6v-102.4h665.6v102.4zM819.2 563.2h-716.8v-102.4h716.8v102.4zM204.8 153.6h665.6v102.4h-665.6v-102.4zM256 409.6v-102.4h665.6v102.4h-665.6z" />
<glyph unicode="&#xe657;" glyph-name="payroll" d="M844.8 230.4c14.13 0 25.6 11.47 25.6 25.6v153.6c0 14.13-11.47 25.6-25.6 25.6s-25.6-11.47-25.6-25.6v-153.6c0-14.13 11.47-25.6 25.6-25.6zM998.4 768h-128v179.2c0 14.132-11.47 25.6-25.6 25.6h-716.34c-66.816 0-115.558-57.958-126.004-117.402-1.486-3.226-2.458-6.758-2.458-10.598 0-2.97 0.41-5.786 0.614-8.654-0.052-1.382-0.41-2.764-0.41-4.146 0-1.792 0.666-3.328 1.024-5.018-0.818-2.458-1.23-5.068-1.23-7.782v-742.4c0-70.554 57.6-128 128.462-128h869.938c14.13 0 25.6 11.47 25.6 25.6v768c0 14.13-11.47 25.6-25.6 25.6zM128.462 921.6h690.74v-153.6h-690.74c-40.090 0-72.806 30.668-76.492 69.53 2.766 40.090 34.97 84.070 76.492 84.070zM972.8 0h-844.34c-42.598 0-77.26 34.458-77.26 76.8v665.806c21.504-16.23 48.282-25.806 77.26-25.806h844.34v-716.8z" />
<glyph unicode="&#xe658;" glyph-name="plane" d="M1017.6 919.346c-13.312 31.95-45.466 53.452-79.974 53.452-17.254 0-43.11-5.274-67.89-30.362l-224.462-226.304-523.622 139.52c-8.91 2.51-18.33-0.204-24.782-6.656l-89.446-90.42c-5.682-5.734-8.346-13.876-7.116-21.862 1.178-7.986 6.144-14.95 13.26-18.738l412.878-219.444-146.126-147.456-126.926 15.718c-7.68 0.818-15.77-1.74-21.35-7.374l-70.862-71.526c-5.682-5.734-8.346-13.876-7.116-21.862 1.178-7.986 6.144-14.95 13.312-18.79l151.040-80.128 79.514-152.474c3.788-7.22 10.802-12.236 18.892-13.466 8.090-1.28 16.282 1.486 22.016 7.27l70.912 71.526c5.478 5.53 8.142 13.26 7.27 20.992l-14.95 127.538 145.714 147.098 212.582-412.876c3.738-7.27 10.752-12.34 18.842-13.568 1.28-0.256 2.56-0.358 3.84-0.358 6.758 0 13.362 2.714 18.176 7.578l89.6 90.418c6.35 6.4 8.858 15.668 6.606 24.37l-132.454 517.53 229.12 231.884c28.518 28.672 37.274 65.586 23.5 98.766zM957.746 856.626l-239.36-242.226c-6.35-6.4-8.806-15.668-6.606-24.372l132.506-517.478-54.578-55.092-212.582 412.876c-3.738 7.27-10.752 12.34-18.842 13.568-1.28 0.206-2.61 0.308-3.89 0.308-6.758 0-13.364-2.714-18.176-7.578l-179.2-180.89c-5.478-5.53-8.142-13.26-7.27-20.992l14.95-127.538-37.53-37.888-67.022 128.462c-2.406 4.558-6.144 8.346-10.7 10.752l-127.642 67.686 37.786 38.144 126.924-15.718c7.884-0.87 15.77 1.74 21.35 7.374l179.2 180.89c5.682 5.734 8.346 13.876 7.118 21.862-1.228 8.038-6.144 15.002-13.262 18.79l-412.928 219.442 54.836 55.398 523.572-139.57c8.754-2.406 18.278 0.154 24.78 6.706l234.906 236.85c22.682 22.938 54.63 16.436 64.206-6.758 5.734-13.774 1.332-29.082-12.544-43.008z" />
<glyph unicode="&#xe659;" glyph-name="planeSmall" d="M750.95 753.614l-148.326-149.606-339.762 90.572-56.526-57.088 279.962-148.786-113.152-114.228-88.064 10.906-44.748-45.158 99.84-52.992 52.582-100.762 44.75 45.21-10.342 88.27 113.152 114.226 144.434-280.576 56.576 57.14-85.914 335.718 151.194 152.986c40.806 41.062-15.616 94.668-55.654 54.17z" />
<glyph unicode="&#xe65a;" glyph-name="play" d="M512 819.2c-197.99 0-358.4-160.512-358.4-358.4s160.41-358.4 358.4-358.4 358.4 160.512 358.4 358.4-160.41 358.4-358.4 358.4zM643.534 446.618l-166.656-111.77c-11.726-7.73-16.076-2.56-16.076 11.52v228.864c0 14.080 4.3 19.25 16.076 11.47l168.038-111.924c11.726-7.68 10.394-20.378-1.382-28.16z" />
<glyph unicode="&#xe65b;" glyph-name="publish" d="M924.416 460.8l-310.016 307.2v-153.6h-204.8v-307.2h204.8v-153.6l310.016 307.2zM51.2 307.2h102.4v307.2h-102.4v-307.2zM204.8 307.2h153.6v307.2h-153.6v-307.2z" />
<glyph unicode="&#xe65c;" glyph-name="radio" d="M512 768c-169.678 0-307.2-137.574-307.2-307.2s137.522-307.2 307.2-307.2 307.2 137.574 307.2 307.2-137.524 307.2-307.2 307.2zM512 204.8c-141.158 0-256 114.842-256 256s114.842 256 256 256 256-114.842 256-256-114.842-256-256-256z" />
<glyph unicode="&#xe65d;" glyph-name="radioSelect" d="M512 563.2c-56.576 0-102.4-45.824-102.4-102.4s45.824-102.4 102.4-102.4 102.4 45.824 102.4 102.4-45.824 102.4-102.4 102.4zM512 768c-169.678 0-307.2-137.574-307.2-307.2s137.522-307.2 307.2-307.2 307.2 137.574 307.2 307.2-137.524 307.2-307.2 307.2zM512 204.8c-141.158 0-256 114.842-256 256s114.842 256 256 256 256-114.842 256-256-114.842-256-256-256z" />
<glyph unicode="&#xe65e;" glyph-name="refresh" d="M563.098 921.6c-231.73 0-423.526-172.082-455.63-395.008l-61.952 76.39c-9.010 11.060-25.19 12.646-35.994 3.738-11.008-8.908-12.698-25.038-3.788-35.994l102.194-126.004c0.308-0.358 0.768-0.562 1.076-0.922 1.076-1.23 2.406-2.15 3.738-3.124s2.612-2.048 4.096-2.764c1.332-0.666 2.868-0.972 4.404-1.332 1.28-0.358 2.56-1.076 3.942-1.23 0.87-0.102 1.74-0.154 2.612-0.154 3.226 0 6.35 0.716 9.37 1.894 1.024 0.41 1.842 1.076 2.816 1.586 1.33 0.768 2.866 1.28 4.044 2.304l125.39 102.656c10.956 8.96 12.544 25.088 3.584 36.046s-25.088 12.544-35.994 3.584l-79.052-64.716c28.262 198.554 198.912 351.846 405.146 351.846 225.894 0 409.702-183.706 409.702-409.548 0-225.894-183.808-409.652-409.702-409.652-108.646 0-211.15 42.342-288.666 119.246-10.036 9.984-26.266 9.882-36.198-0.154-9.984-10.034-9.882-26.266 0.102-36.198 87.142-86.476 202.496-134.092 324.762-134.092 254.158 0 460.902 206.746 460.902 460.852 0 254.054-206.746 460.748-460.902 460.748z" />
<glyph unicode="&#xe65f;" glyph-name="refreshCircle" d="M742.35 488.090c-14.13 0-25.6-11.468-25.6-25.6 0-113.87-92.006-206.49-205.158-206.49-113.050 0-205.056 92.62-205.056 206.49 0 91.7 60.006 168.704 142.284 195.584l-11.52-14.132c-8.908-10.956-7.27-27.084 3.686-36.044 4.762-3.89 10.496-5.734 16.128-5.734 7.476 0 14.848 3.226 19.866 9.422l54.426 66.866c0.768 0.922 0.972 1.998 1.586 2.97 0.922 1.536 1.842 3.022 2.458 4.71s0.818 3.38 1.024 5.172c0.154 1.126 0.666 2.15 0.666 3.328 0 0.462-0.206 0.818-0.256 1.28-0.102 1.792-0.614 3.43-1.076 5.17-0.41 1.536-0.666 3.072-1.332 4.454s-1.638 2.51-2.56 3.738c-1.076 1.486-2.048 2.97-3.38 4.198-0.358 0.308-0.462 0.716-0.818 1.024l-66.816 54.476c-11.008 8.96-27.136 7.322-36.046-3.686-8.908-10.958-7.27-27.086 3.686-36.046l21.35-17.408c-111.462-27.904-194.61-128.716-194.61-249.344 0-142.080 114.944-257.69 256.256-257.69 141.364 0 256.358 115.61 256.358 257.69 0.052 14.182-11.366 25.6-25.548 25.6zM512 972.8c-282.318 0-512-229.682-512-512s229.682-512 512-512 512 229.682 512 512c0 282.316-229.682 512-512 512zM512 0c-254.054 0-460.8 206.746-460.8 460.8s206.746 460.8 460.8 460.8 460.8-206.694 460.8-460.8c0-254.054-206.694-460.8-460.8-460.8z" />
<glyph unicode="&#xe660;" glyph-name="refreshSmall" d="M495.77 819.2c-156.416 0-287.18-114.894-316.978-266.906l-30.618 38.962c-8.754 11.162-24.986 13.056-35.942 4.3-11.162-8.704-13.056-24.832-4.352-35.942l69.938-88.986c0.358-0.462 0.922-0.666 1.23-1.074 1.074-1.178 2.406-2.15 3.686-3.122 1.33-1.074 2.662-2.098 4.198-2.868 1.382-0.666 2.866-0.974 4.352-1.332 1.33-0.41 2.61-1.126 4.044-1.28 0.87-0.102 1.792-0.154 2.61-0.154 3.226 0 6.45 0.768 9.522 1.946 0.87 0.358 1.536 0.974 2.354 1.382 1.586 0.87 3.276 1.536 4.71 2.714l85.76 72.5c10.802 9.114 12.134 25.292 3.022 36.096-9.062 10.802-25.242 12.134-36.096 3.020l-37.070-31.386c26.88 126.156 135.68 220.928 265.626 220.928 150.068 0 272.23-126.31 272.23-281.548 0-155.29-122.164-281.652-272.23-281.652-72.090 0-140.082 29.030-191.438 81.716-9.932 10.138-26.164 10.292-36.198 0.462-10.138-9.83-10.342-26.062-0.512-36.198 61.082-62.668 142.080-97.178 228.146-97.178 178.33 0 323.43 149.35 323.43 332.852 0 183.45-145.1 332.748-323.43 332.748z" />
<glyph unicode="&#xe661;" glyph-name="schedule" d="M998.4 972.8h-972.8c-14.132 0-25.6-11.468-25.6-25.6v-972.8c0-14.13 11.468-25.6 25.6-25.6h972.8c14.13 0 25.6 11.47 25.6 25.6v972.8c0 14.132-11.47 25.6-25.6 25.6zM243.712 0c76.39 57.344 168.654 88.78 265.318 88.78 96.972 0 188.826-31.438 265.062-88.78h-530.38zM972.8 0h-119.962c-92.876 90.112-214.426 139.98-343.858 139.98-128.154 0-249.754-48.998-342.426-137.932-0.614-0.614-0.87-1.382-1.382-2.048h-113.972v665.6h921.6v-665.6zM972.8 716.8h-921.6v204.8h153.6v-51.2c0-14.13 11.468-25.6 25.6-25.6s25.6 11.47 25.6 25.6v51.2h512v-51.2c0-14.13 11.47-25.6 25.6-25.6s25.6 11.47 25.6 25.6v51.2h153.6v-204.8zM513.536 195.634c102.962 0 186.726 83.764 186.726 186.726s-83.764 186.676-186.726 186.676c-102.962 0-186.676-83.762-186.676-186.676s83.762-186.726 186.676-186.726zM513.536 517.888c74.752 0 135.526-60.774 135.526-135.476s-60.826-135.526-135.526-135.526c-74.702 0-135.476 60.826-135.476 135.526s60.774 135.476 135.476 135.476z" />
<glyph unicode="&#xe662;" glyph-name="search" d="M383.642 972.8c211.508 0 383.54-172.082 383.54-383.59 0-72.5-20.53-140.084-55.654-197.99 5.632-0.562 11.162-2.61 15.462-6.962l289.486-289.332c5.018-4.966 7.526-11.52 7.526-18.074s-2.51-13.106-7.476-18.126l-102.502-102.452c-5.018-5.018-11.572-7.476-18.074-7.476-6.554 0-13.106 2.51-18.126 7.476l-289.486 289.332c-4.352 4.302-6.4 9.83-7.014 15.514-57.856-35.020-125.286-55.5-197.682-55.5-211.558 0-383.642 172.032-383.642 383.59s172.082 383.59 383.642 383.59zM624.486 281.754l271.462-271.258 66.304 66.356-271.412 271.206c-1.946 1.946-3.174 4.25-4.352 6.554-19.968-25.65-42.906-48.64-68.608-68.506 2.356-1.126 4.658-2.356 6.606-4.352zM383.642 256.768c183.296 0 332.39 149.146 332.39 332.442s-149.094 332.442-332.39 332.442c-183.348 0-332.492-149.146-332.492-332.442s149.146-332.442 332.492-332.442z" />
<glyph unicode="&#xe663;" glyph-name="searchSmall" d="M862.924 146.126l-153.498 153.498c36.044 44.082 58.572 99.738 58.572 161.178 0 141.362-114.586 256-256 256s-256-114.638-256-256 114.586-256 256-256c61.44 0 117.094 22.528 161.178 58.624l153.498-153.498c5.018-5.018 11.572-7.526 18.126-7.526s13.106 2.51 18.126 7.476c9.984 10.034 9.984 26.214 0 36.25zM512 256c-112.948 0-204.8 91.852-204.8 204.8s91.854 204.8 204.8 204.8 204.8-91.854 204.8-204.8-91.852-204.8-204.8-204.8z" />
<glyph unicode="&#xe664;" glyph-name="shift" d="M153.6 819.2v-716.8c0 88.064 214.528 143.668 351.334 145.51 141.978 1.946 263.066-54.222 365.466-145.51v716.8h-716.8zM512.666 358.604c-96.82 0-175.308 78.49-175.308 175.36 0 96.82 78.49 175.308 175.308 175.308s175.41-78.49 175.41-175.308c-0.052-96.87-78.644-175.36-175.412-175.36z" />
<glyph unicode="&#xe665;" glyph-name="shiftTemplates" d="M998.4 716.8h-76.8v76.8c0 14.13-11.47 25.6-25.6 25.6h-76.8v76.8c0 14.13-11.47 25.6-25.6 25.6h-716.8c-14.132 0-25.6-11.47-25.6-25.6v-716.8c0-14.13 11.47-25.6 25.6-25.6h76.8v-76.8c0-14.13 11.468-25.6 25.6-25.6h76.8v-76.8c0-14.13 11.468-25.6 25.6-25.6h716.8c14.13 0 25.6 11.47 25.6 25.6v716.8c0 14.132-11.47 25.6-25.6 25.6zM110.746 231.782c-7.73-7.014-10.034-17.664-6.962-26.982h-1.382v665.6h665.6v-665.6h-0.052c0 0.154 0.052 0.308 0.052 0.462-0.102 6.554-2.764 13.056-7.834 17.972-87.86 84.684-204.8 131.328-329.216 131.328-119.654 0-233.42-43.622-320.204-122.778zM158.362 204.8c75.57 63.438 171.52 98.56 272.64 98.56 101.53 0 197.12-35.020 272.588-98.56h-545.23zM204.8 102.4v51.2h588.8c14.13 0 25.6 11.47 25.6 25.6v588.8h51.2v-665.6h-665.6zM972.8 0h-665.6v51.2h588.8c14.13 0 25.6 11.47 25.6 25.6v588.8h51.2v-665.6zM614.4 588.75c0 98.866-80.384 179.25-179.2 179.25s-179.2-80.384-179.2-179.25c0-98.764 80.384-179.15 179.2-179.15s179.2 80.384 179.2 179.15zM307.2 588.75c0 70.606 57.446 128.050 128 128.050s128-57.446 128-128.050c0-70.554-57.446-127.95-128-127.95s-128 57.394-128 127.95z" />
<glyph unicode="&#xe666;" glyph-name="sort" d="M320.768 460.8h433.714c14.080 0 17.818 11.008 8.244 21.35l-207.872 226.304c-9.574 10.342-25.14 10.958-34.662 0.614l-207.718-226.918c-9.524-10.342-5.786-21.35 8.294-21.35zM754.432 409.6h-433.664c-14.080 0-17.818 1.332-8.294-9.010l207.718-220.774c9.524-10.342 25.14-12.8 34.662-2.458l207.872 223.182c9.524 10.394 5.786 9.062-8.294 9.062z" />
<glyph unicode="&#xe667;" glyph-name="square" d="M819.2 819.2h-614.4c-28.314 0-51.2-22.938-51.2-51.2v-614.4c0-28.262 22.886-51.2 51.2-51.2h614.4c28.314 0 51.2 22.938 51.2 51.2v614.4c0 28.262-22.886 51.2-51.2 51.2z" />
<glyph unicode="&#xe668;" glyph-name="sum" d="M640 716.8h-358.4c-10.19 0-19.404-6.042-23.5-15.41-4.044-9.37-2.15-20.224 4.812-27.648l148.224-158.566-148.582-165.274c-6.758-7.526-8.448-18.33-4.352-27.546 4.146-9.216 13.312-15.154 23.398-15.154h358.4c14.13 0 25.6 11.47 25.6 25.6v25.6c0 14.13-11.47 25.6-25.6 25.6s-25.6-11.47-25.6-25.6h-275.354l125.902 139.982c8.858 9.882 8.704 24.882-0.358 34.61l-124.006 132.608h273.818c0-14.13 11.47-25.6 25.6-25.6s25.6 11.47 25.6 25.6v25.6c0 14.132-11.47 25.6-25.6 25.6zM998.4 819.2h-76.8v128c0 14.13-11.47 25.6-25.6 25.6h-870.4c-14.132 0-25.6-11.468-25.6-25.6v-870.4c0-14.13 11.468-25.6 25.6-25.6h76.8v-76.8c0-14.13 11.468-25.6 25.6-25.6h870.4c14.13 0 25.6 11.47 25.6 25.6v819.2c0 14.13-11.47 25.6-25.6 25.6zM51.2 102.4v819.2h819.2v-819.2h-819.2zM972.8 0h-819.2v51.2h742.4c14.13 0 25.6 11.47 25.6 25.6v691.2h51.2v-768z" />
<glyph unicode="&#xe669;" glyph-name="sun" d="M235.724 246.426l-67.79-67.738c-9.984-9.984-9.984-26.214 0-36.198 5.018-5.018 11.57-7.476 18.126-7.476s13.106 2.51 18.126 7.476l67.788 67.738c9.984 9.984 9.984 26.214 0 36.198s-26.266 10.034-36.25 0zM179.2 486.4c0 14.13-11.468 25.6-25.6 25.6h-102.4c-14.132 0-25.6-11.468-25.6-25.6s11.47-25.6 25.6-25.6h102.4c14.132 0 25.6 11.468 25.6 25.6zM486.4 793.6c14.13 0 25.6 11.468 25.6 25.6v102.4c0 14.13-11.468 25.6-25.6 25.6s-25.6-11.47-25.6-25.6v-102.4c0-14.132 11.468-25.6 25.6-25.6zM719.002 718.798c6.554 0 13.106 2.51 18.126 7.474l67.686 67.79c9.984 9.984 9.984 26.214 0 36.198s-26.214 9.984-36.198 0l-67.686-67.788c-9.984-9.984-9.984-26.214 0-36.198 4.966-4.966 11.52-7.474 18.074-7.474zM235.878 726.476c5.018-5.018 11.57-7.476 18.126-7.476s13.108 2.51 18.126 7.476c9.984 9.984 9.984 26.214 0 36.198l-67.634 67.738c-9.984 9.984-26.214 9.984-36.198 0s-9.984-26.214 0-36.198l67.584-67.738zM486.4 179.2c-14.13 0-25.6-11.47-25.6-25.6v-102.4c0-14.13 11.468-25.6 25.6-25.6s25.6 11.47 25.6 25.6v102.4c0 14.13-11.468 25.6-25.6 25.6zM736.922 246.322c-9.984 9.984-26.214 9.984-36.198 0s-9.984-26.214 0-36.198l67.686-67.738c5.018-5.018 11.572-7.476 18.126-7.476s13.106 2.51 18.126 7.476c9.984 9.984 9.984 26.214 0 36.198l-67.738 67.738zM921.6 512h-102.4c-14.13 0-25.6-11.468-25.6-25.6s11.47-25.6 25.6-25.6h102.4c14.13 0 25.6 11.468 25.6 25.6s-11.47 25.6-25.6 25.6zM486.4 716.8c-127.026 0-230.4-102.554-230.4-228.556s103.374-228.558 230.4-228.558 230.4 102.554 230.4 228.558-103.322 228.556-230.4 228.556zM486.4 310.834c-98.816 0-179.2 79.564-179.2 177.358s80.384 177.408 179.2 177.408 179.2-79.564 179.2-177.356-80.384-177.408-179.2-177.408z" />
<glyph unicode="&#xe66a;" glyph-name="trade" d="M302.336 768h209.254c14.13 0 25.6 11.47 25.6 25.6s-11.418 25.6-25.6 25.6h-209.254c-94.514 0-199.936-76.646-199.936-179.2v-429.158l-58.624 58.164c-9.984 9.932-26.318 9.984-36.302-0.052-9.932-9.984-9.984-26.214 0-36.198l123.188-122.88c5.018-4.966 11.57-7.476 18.074-7.476s13.106 2.51 18.126 7.476l122.982 122.88c9.984 9.984 9.984 26.164 0 36.198-9.984 9.984-26.010 9.984-36.046 0l-100.25-100.302v471.346c0.050 72.038 79.872 128 148.788 128zM1016.474 688.794l-123.238 122.93c-10.034 9.932-26.214 9.984-36.25 0l-122.932-122.93c-9.984-9.984-9.984-26.164 0-36.198 9.984-9.984 26.418-9.984 36.404 0l99.942 99.686v-470.682c0-72.038-80.23-128-148.89-128h-209.92c-14.13 0-25.6-11.47-25.6-25.6s11.468-25.6 25.6-25.6h209.92c94.208 0 200.090 76.646 200.090 179.2v429.824l58.88-58.828c5.018-5.018 11.418-7.476 17.972-7.476s13.106 2.51 18.126 7.526c9.934 9.984 9.882 26.164-0.102 36.146z" />
<glyph unicode="&#xe66b;" glyph-name="tradeCircle" d="M404.122 614.4h107.52c14.132 0 25.6 11.468 25.6 25.6s-11.47 25.6-25.652 25.6h-107.52c-68.658 0-148.122-55.91-148.122-128v-174.030l-7.372 7.116c-10.086 10.034-26.368 9.932-36.3-0.102-9.984-10.034-9.984-26.214 0.050-36.198l71.27-70.912c5.070-5.018 11.622-7.476 18.126-7.476 6.554 0 13.056 2.458 18.074 7.476l71.218 70.912c9.984 9.984 10.036 26.214 0.050 36.25-9.984 9.984-26.010 10.086-36.046 0.052l-47.82-47.822v214.734c0 40.654 54.016 76.8 96.922 76.8zM512 972.8c-282.318 0-512-229.682-512-512s229.682-512 512-512 512 229.682 512 512c0 282.316-229.682 512-512 512zM512 0c-254.054 0-460.8 206.746-460.8 460.8s206.746 460.8 460.8 460.8 460.8-206.694 460.8-460.8c0-254.054-206.694-460.8-460.8-460.8zM740.352 658.126c-9.984 9.932-26.112 9.932-36.148 0l-71.22-70.912c-9.984-9.984-10.034-26.164-0.052-36.198 9.932-9.984 26.368-10.086 36.404-0.052l47.41 47.002v-213.966c0-40.654-54.374-76.8-96.922-76.8h-108.288c-14.13 0-25.6-11.47-25.6-25.6s11.468-25.6 25.6-25.6h108.288c68.302 0 148.122 55.91 148.122 128v174.848l7.73-7.884c5.018-4.966 11.418-7.476 17.972-7.476s13.106 2.51 18.126 7.526c9.984 10.034 9.882 26.214-0.102 36.198l-71.322 70.912z" />
<glyph unicode="&#xe66c;" glyph-name="trashSmall" d="M691.2 179.2c14.13 0 25.6 11.47 25.6 25.6v307.2c0 14.132-11.47 25.6-25.6 25.6s-25.6-11.468-25.6-25.6v-307.2c0-14.13 11.47-25.6 25.6-25.6zM588.8 179.2c14.13 0 25.6 11.47 25.6 25.6v307.2c0 14.132-11.47 25.6-25.6 25.6s-25.6-11.468-25.6-25.6v-307.2c0-14.13 11.47-25.6 25.6-25.6zM844.8 768h-179.2v76.8c0 14.132-11.47 25.6-25.6 25.6h-204.8c-14.132 0-25.6-11.468-25.6-25.6v-76.8h-179.2c-14.132 0-25.6-11.47-25.6-25.6v-102.4c0-14.132 11.468-25.6 25.6-25.6h25.6v-486.4c0-42.342 34.406-76.8 76.646-76.8h409.6c42.446 0 76.954 34.458 76.954 76.8v486.4h25.6c14.13 0 25.6 11.468 25.6 25.6v102.4c0 14.13-11.47 25.6-25.6 25.6zM460.8 819.2h153.6v-51.2h-153.6v51.2zM768 128c0-13.876-11.776-25.6-25.754-25.6h-409.6c-14.028 0-25.446 11.47-25.446 25.6v486.4h460.8v-486.4zM819.2 665.6h-563.2v51.2h563.2v-51.2zM486.4 179.2c14.13 0 25.6 11.47 25.6 25.6v307.2c0 14.132-11.468 25.6-25.6 25.6s-25.6-11.468-25.6-25.6v-307.2c0-14.13 11.468-25.6 25.6-25.6zM384 179.2c14.13 0 25.6 11.47 25.6 25.6v307.2c0 14.132-11.468 25.6-25.6 25.6s-25.6-11.468-25.6-25.6v-307.2c0-14.13 11.468-25.6 25.6-25.6z" />
<glyph unicode="&#xe66d;" glyph-name="undo" d="M589.26 665.6h-408.782l108.544 110.028c9.984 10.034 9.882 26.266-0.154 36.198s-26.266 9.83-36.198-0.256l-142.644-144.538c-5.938-5.99-7.834-14.182-6.554-21.914-0.41-1.74-1.076-3.328-1.076-5.12 0-13.518 10.546-24.27 23.808-25.242l126.618-128c5.018-5.070 11.622-7.578 18.176-7.578 6.502 0 13.004 2.458 18.022 7.424 10.036 9.932 10.138 26.112 0.154 36.146l-90.624 91.648h388.658c130.098 0 231.986-101.222 231.986-230.4s-101.888-230.4-231.986-230.4h-305.664c-14.13 0-25.6-11.47-25.6-25.6s11.47-25.6 25.6-25.6h307.712c157.85 1.076 281.14 124.366 281.14 281.6s-123.29 280.524-281.14 281.6z" />
<glyph unicode="&#xe66e;" glyph-name="unpaid" d="M282.778 409.6h-26.778v-26.778l26.778 26.778zM436.378 563.2h-333.978v-102.4h231.578l102.4 102.4zM778.188 768l-665.498-614.4h134.092l665.498 614.4h-134.092zM635.034 409.6l-102.4-102.4h388.966v102.4h-286.566zM589.926 716.8h-385.126v-102.4h282.778l102.35 102.4zM379.034 153.6h491.366v102.4h-388.966l-102.4-102.4zM819.2 460.8v102.4h-30.566l-102.4-102.4h132.966zM870.4 644.966l-30.566-30.566h30.566v30.566z" />
<glyph unicode="&#xe66f;" glyph-name="update" d="M665.6 870.4h-256v-51.2h256v51.2zM665.6 768h-256v-51.2h256v51.2zM537.6 306.996l193.536 205.004h-65.536v153.6h-256v-153.6h-65.536l193.536-205.004zM745.216 819.354c-11.826 7.68-27.698 4.506-35.43-7.424-7.73-11.826-4.454-27.7 7.424-35.43 95.898-62.822 153.19-169.114 153.19-284.314 0-186.726-149.298-338.586-332.8-338.586s-332.8 151.86-332.8 338.586c0 115.2 57.294 221.542 153.294 284.468 11.826 7.73 15.104 23.602 7.372 35.43-7.834 11.93-23.654 15.154-35.482 7.372-110.438-72.396-176.384-194.714-176.384-327.27 0-214.938 172.236-389.786 384-389.786s384 174.848 384 389.786c0 132.506-65.946 254.822-176.384 327.168z" />
<glyph unicode="&#xe670;" glyph-name="user" d="M511.796 358.4c141.158 0 256 114.842 256 256s-114.842 256-256 256-256-114.842-256-256c0-141.158 114.842-256 256-256zM511.796 819.2c112.946 0 204.8-91.854 204.8-204.8s-91.852-204.8-204.8-204.8-204.8 91.854-204.8 204.8c0 112.948 91.854 204.8 204.8 204.8zM1016.678 51.968c-136.398 138.394-317.952 214.58-511.334 214.58-186.112 0-362.752-71.22-497.46-200.602-10.19-9.778-10.496-25.958-0.716-36.198 9.728-10.24 25.958-10.446 36.198-0.768 125.030 120.166 289.126 186.318 461.926 186.318 179.558 0 348.21-70.758 474.83-199.322 5.068-5.068 11.674-7.63 18.226-7.63 6.502 0 13.004 2.458 17.972 7.374 10.138 9.932 10.24 26.164 0.358 36.25z" />
<glyph unicode="&#xe671;" glyph-name="userCircle" d="M511.538 400.794c86.426 0 156.722 68.916 156.722 153.6s-70.298 153.6-156.724 153.6c-86.426 0-156.826-68.916-156.826-153.6s70.4-153.6 156.826-153.6zM511.538 656.794c58.164 0 105.524-45.926 105.524-102.4s-47.36-102.4-105.524-102.4c-58.266 0-105.626 45.926-105.626 102.4s47.412 102.4 105.626 102.4zM507.442 344.012c-114.74 0-223.642-43.878-306.638-123.648-10.188-9.778-10.496-26.010-0.718-36.198 9.728-10.24 25.958-10.446 36.198-0.768 73.42 70.502 169.676 109.364 271.154 109.364 105.42 0 204.39-41.574 278.734-116.992 5.068-5.068 11.674-7.63 18.226-7.63 6.502 0 13.004 2.458 17.972 7.374 10.086 9.932 10.188 26.112 0.308 36.198-84.020 85.35-195.994 132.3-315.238 132.3zM512 972.8c-282.318 0-512-229.682-512-512s229.682-512 512-512 512 229.682 512 512c0 282.316-229.682 512-512 512zM512 0c-254.106 0-460.8 206.746-460.8 460.8s206.694 460.8 460.8 460.8 460.8-206.694 460.8-460.8c0-254.054-206.694-460.8-460.8-460.8z" />
<glyph unicode="&#xe672;" glyph-name="viewDay" d="M460.8 512h51.2v-204.8h51.2v273.92l-102.4-10.394v-58.726zM896 870.4h-768c-14.132 0-25.6-11.468-25.6-25.6v-768c0-14.13 11.468-25.6 25.6-25.6h768c14.13 0 25.6 11.47 25.6 25.6v768c0 14.132-11.47 25.6-25.6 25.6zM870.4 102.4h-716.8v716.8h102.4v-51.2c0-14.132 11.468-25.6 25.6-25.6s25.6 11.468 25.6 25.6v51.2h409.6v-51.2c0-14.132 11.47-25.6 25.6-25.6s25.6 11.468 25.6 25.6v51.2h102.4v-716.8z" />
<glyph unicode="&#xe673;" glyph-name="viewMonth" d="M427.52 464.588c14.182 6.4 25.14 15.412 32.87 26.982s11.572 23.604 11.572 35.994c0 26.522-8.602 47.002-25.754 61.388s-40.192 21.658-69.018 21.658c-27.29 0-49.818-7.578-67.43-22.682s-26.060-33.844-25.242-56.116l0.41-1.178h47.462c0 12.288 4.25 22.17 12.646 29.696 8.448 7.474 19.354 11.264 32.768 11.264 14.694 0 25.906-3.84 33.486-11.52 7.526-7.628 11.314-18.482 11.314-32.462 0-14.284-3.482-25.292-10.496-33.074-7.066-7.834-18.534-11.726-34.51-11.726h-34.304v-38.196h34.304c16.896 0 29.39-3.89 37.376-11.674 8.038-7.782 12.084-19.866 12.084-36.25 0-14.9-4.404-26.418-13.21-34.51s-20.786-12.186-36.096-12.186c-14.592 0-26.318 3.994-35.122 11.93s-13.21 18.38-13.21 31.232h-47.36l-0.41-1.178c-0.87-25.344 8.038-45.158 26.676-59.494s41.626-21.504 68.916-21.504c28.878 0 52.686 7.63 71.322 22.886s27.904 36.25 27.904 62.924c0 15.308-3.994 28.98-11.878 41.010s-20.326 20.89-37.070 26.778zM608.768 610.61c-29.85 0-53.452-9.984-70.81-30.004-17.306-20.020-25.958-48.896-25.958-86.63v-66.612c0-37.888 8.704-66.714 26.214-86.578 17.408-19.866 41.114-29.798 70.962-29.798 29.746 0 53.298 9.932 70.606 29.798s25.958 48.742 25.958 86.578v66.612c0 37.734-8.704 66.61-26.164 86.58s-41.062 30.054-70.81 30.054zM656.384 420.506c0-24.116-3.994-41.882-11.93-53.35s-19.764-17.152-35.278-17.152-27.392 5.734-35.584 17.254c-8.14 11.52-12.236 29.286-12.236 53.248v80.948c0 23.808 3.994 41.472 12.032 52.94s19.866 17.152 35.38 17.152 27.392-5.734 35.482-17.152c8.14-11.468 12.134-29.132 12.134-52.94v-80.948zM896 870.4h-768c-14.132 0-25.6-11.468-25.6-25.6v-768c0-14.13 11.468-25.6 25.6-25.6h768c14.13 0 25.6 11.47 25.6 25.6v768c0 14.132-11.47 25.6-25.6 25.6zM870.4 102.4h-716.8v716.8h102.4v-51.2c0-14.132 11.468-25.6 25.6-25.6s25.6 11.468 25.6 25.6v51.2h409.6v-51.2c0-14.132 11.47-25.6 25.6-25.6s25.6 11.468 25.6 25.6v51.2h102.4v-716.8z" />
<glyph unicode="&#xe674;" glyph-name="viewWeek" d="M896 870.4h-768c-14.132 0-25.6-11.468-25.6-25.6v-768c0-14.13 11.468-25.6 25.6-25.6h768c14.13 0 25.6 11.47 25.6 25.6v768c0 14.132-11.47 25.6-25.6 25.6zM870.4 102.4h-716.8v716.8h102.4v-51.2c0-14.132 11.468-25.6 25.6-25.6s25.6 11.468 25.6 25.6v51.2h409.6v-51.2c0-14.132 11.47-25.6 25.6-25.6s25.6 11.468 25.6 25.6v51.2h102.4v-716.8zM614.4 575.386c-33.946-39.322-56.832-74.802-68.762-106.394s-20.582-69.94-26.010-114.996l-3.020-30.822h-49.254l3.072 30.822c5.274 43.98 15.822 83.918 31.642 119.706s37.376 69.682 64.718 101.682h-156.416v39.014h204.032v-39.014z" />
<glyph unicode="&#xe675;" glyph-name="warning" d="M460.8 307.2h102.4v307.2h-102.4v-307.2zM460.8 153.6h102.4v102.4h-102.4v-102.4zM1016.32 96l-482.816 813.926c-9.216 15.566-34.816 15.566-43.98 0l-485.888-819.2c-4.71-7.936-4.812-18.176-0.256-26.164s13.056-13.362 22.222-13.362h971.878c0.308 0 0.716 0 1.024 0 14.080 0 25.548 11.878 25.548 26.010-0.050 7.22-2.97 14.182-7.73 18.79zM70.502 102.4l440.986 743.476 440.986-743.476h-881.972z" />
<glyph unicode="&#xe676;" glyph-name="warningInv" d="M1016.32 96l-482.816 813.926c-9.216 15.566-34.816 15.566-43.98 0l-485.888-819.2c-4.71-7.936-4.812-18.176-0.256-26.164s13.056-13.362 22.17-13.362h972.902c14.080 0 25.548 11.878 25.548 26.010 0 7.22-2.918 14.13-7.68 18.79zM563.2 153.6h-102.4v102.4h102.4v-102.4zM563.2 307.2h-102.4v307.2h102.4v-307.2z" />
<glyph unicode="&#xe677;" glyph-name="warningInvSmall" d="M512 768l-384-665.6h768l-384 665.6zM563.2 204.8h-102.4v102.4h102.4v-102.4zM460.8 358.4v204.8h102.4v-204.8h-102.4z" />
<glyph unicode="&#xe678;" glyph-name="warningSmall" d="M471.654 215.5h80.846v83.2h-80.846v-83.2zM460.8 358.4h102.4v204.8h-102.4v-204.8zM915.61 146.126l-380.928 660.276c-9.164 15.872-35.226 15.872-44.338 0l-384-665.6c-4.558-7.936-4.558-17.664 0-25.6s13.004-12.8 22.17-12.8h768c0.358 0 0.716 0 1.024 0 14.13 0 25.6 11.47 25.6 25.6 0 7.066-2.866 13.518-7.526 18.126zM172.8 153.6l339.712 588.8 339.662-588.8h-679.374z" />
<glyph unicode="&#xe679;" glyph-name="windows" d="M998.4 716.8h-230.4v230.4c0 14.13-11.47 25.6-25.6 25.6h-716.8c-14.132 0-25.6-11.468-25.6-25.6v-716.8c0-14.13 11.468-25.6 25.6-25.6h230.4v-230.4c0-14.13 11.468-25.6 25.6-25.6h716.8c14.13 0 25.6 11.47 25.6 25.6v716.8c0 14.13-11.47 25.6-25.6 25.6zM256 691.2v-435.2h-204.8v665.6h665.6v-204.8h-435.2c-14.132 0-25.6-11.468-25.6-25.6zM972.8 0h-665.6v665.6h665.6v-665.6z" />
<glyph unicode="&#xe67a;" glyph-name="xCircle" d="M658.126 606.924c-9.984 9.984-26.214 9.984-36.198 0l-109.876-109.874-109.824 109.874c-9.984 9.984-26.214 9.984-36.198 0s-9.984-26.214 0-36.198l109.824-109.926-109.926-109.876c-9.984-9.984-9.984-26.214 0-36.198 4.966-5.018 11.52-7.526 18.074-7.526s13.106 2.51 18.126 7.476l109.876 109.876 109.876-109.926c5.018-4.914 11.572-7.424 18.126-7.424s13.106 2.51 18.126 7.476c9.984 9.984 9.984 26.214 0 36.198l-109.926 109.926 109.876 109.876c10.034 10.034 10.034 26.214 0.052 36.25zM512 972.8c-282.318 0-512-229.682-512-512s229.682-512 512-512 512 229.682 512 512c0 282.316-229.682 512-512 512zM512 0c-254.054 0-460.8 206.746-460.8 460.8s206.746 460.8 460.8 460.8 460.8-206.694 460.8-460.8c0-254.054-206.694-460.8-460.8-460.8z" />
<glyph unicode="&#xe67b;" glyph-name="xCircleSmall" d="M512 819.2c-197.99 0-358.4-160.512-358.4-358.4s160.41-358.4 358.4-358.4 358.4 160.512 358.4 358.4-160.41 358.4-358.4 358.4zM650.24 394.598c20.020-20.020 20.020-52.428 0-72.398-9.984-9.984-23.092-15.002-36.198-15.002s-26.214 5.018-36.198 15.002l-66.202 66.202-66.202-66.202c-9.984-9.984-23.092-15.002-36.198-15.002s-26.214 5.018-36.198 15.002c-20.020 20.020-20.020 52.428 0 72.398l66.202 66.202-66.15 66.15c-20.020 20.020-20.020 52.428 0 72.396 20.020 20.020 52.378 20.020 72.396 0l66.15-66.15 66.202 66.15c20.020 20.020 52.378 20.020 72.398 0s20.020-52.378 0-72.398l-66.202-66.15 66.202-66.202z" />
<glyph unicode="&#xe67c;" glyph-name="emoticon" d="M512 972.8c-281.6 0-512-230.4-512-512s230.4-512 512-512 512 230.4 512 512c0 281.6-230.4 512-512 512zM512 0c-256 0-460.8 204.8-460.8 460.8s204.8 460.8 460.8 460.8 460.8-204.8 460.8-460.8c0-256-204.8-460.8-460.8-460.8zM358.4 563.2c0-28.278-22.924-51.2-51.2-51.2s-51.2 22.924-51.2 51.2c0 28.276 22.924 51.2 51.2 51.2s51.2-22.924 51.2-51.2zM768 563.2c0-28.278-22.924-51.2-51.2-51.2s-51.2 22.924-51.2 51.2c0 28.276 22.924 51.2 51.2 51.2s51.2-22.924 51.2-51.2zM512 230.4c-199.68 0-204.8 122.88-204.8 128h-51.2c0 0 0-179.2 256-179.2s256 174.080 256 179.2h-51.2c0-5.12-5.12-128-204.8-128z" />
<glyph unicode="&#xe67d;" glyph-name="moreApps" d="M921.6 552.96c0 5.12-5.12 10.24-10.24 10.24h-184.32c-5.12 0-10.24-5.12-10.24-10.24v-184.32c0-5.12 5.12-10.24 10.24-10.24h184.32c5.12 0 10.24 5.12 10.24 10.24v184.32zM614.4 552.96c0 5.12-5.12 10.24-10.24 10.24h-184.32c-5.12 0-10.24-5.12-10.24-10.24v-184.32c0-5.12 5.12-10.24 10.24-10.24h184.32c5.12 0 10.24 5.12 10.24 10.24v184.32zM307.2 552.96c0 5.12-5.12 10.24-10.24 10.24h-184.32c-5.12 0-10.24-5.12-10.24-10.24v-184.32c0-5.12 5.12-10.24 10.24-10.24h184.32c5.12 0 10.24 5.12 10.24 10.24v184.32z" />
<glyph unicode="&#xe67e;" glyph-name="moveLine" d="M460.8 358.4h-51.2v204.8h51.2v-204.8zM614.4 563.2h-51.2v-204.8h51.2v204.8zM768 563.2h-51.2v-204.8h51.2v204.8zM307.2 563.2h-51.2v-204.8h51.2v204.8z" />
<glyph unicode="&#xe67f;" glyph-name="sessions_group_icon" d="M563.2 496.64c-5.12 0-15.36 0-20.48 5.12-61.44 66.56-143.36 102.4-230.4 102.4s-168.96-35.84-230.4-92.16c-10.24-10.24-25.6-10.24-35.84 0s-10.24 25.6 0 35.84c71.68 66.56 163.84 107.52 261.12 107.52 102.4 0 199.68-40.96 271.36-112.64 10.24-10.24 10.24-25.6 0-35.84 0-5.12-10.24-10.24-15.36-10.24zM450.56 829.44c0 71.68-61.44 133.12-138.24 133.12s-133.12-61.44-133.12-133.12 61.44-133.12 138.24-133.12 133.12 61.44 133.12 133.12zM399.36 829.44c0-46.080-40.96-81.92-87.040-81.92s-87.040 35.84-87.040 81.92c0 46.080 40.96 81.92 87.040 81.92 51.2 0 87.040-35.84 87.040-81.92zM993.28-5.12c10.24 10.24 10.24 25.6 0 35.84-71.68 71.68-168.96 112.64-271.36 112.64-97.28 0-189.44-35.84-261.12-107.52-10.24-10.24-10.24-25.6 0-35.84s25.6-10.24 35.84 0c61.44 61.44 143.36 92.16 225.28 92.16 87.040 0 174.080-35.84 235.52-97.28 5.12-5.12 10.24-5.12 20.48-5.12 0-5.12 10.24 0 15.36 5.12zM860.16 317.44c0 71.68-61.44 133.12-138.24 133.12s-138.24-61.44-138.24-133.12 61.44-133.12 138.24-133.12 138.24 61.44 138.24 133.12zM808.96 317.44c0-46.080-40.96-81.92-87.040-81.92s-87.040 35.84-87.040 81.92c0 46.080 40.96 81.92 87.040 81.92 51.2 0 87.040-35.84 87.040-81.92zM332.8-25.6c0 15.36-10.24 25.6-25.6 25.6h-204.8c-15.36 0-30.72 5.12-35.84 15.36-20.48 20.48-20.48 66.56-15.36 87.040v307.2c0 15.36-10.24 25.6-25.6 25.6s-25.6-10.24-25.6-25.6v-307.2c0-10.24-15.36-76.8 25.6-122.88 10.24-15.36 35.84-30.72 76.8-30.72h204.8c15.36 0 25.6 10.24 25.6 25.6zM1024 512v332.8c0 46.080-30.72 128-138.24 128h-322.56c-15.36 0-25.6-10.24-25.6-25.6s10.24-25.6 25.6-25.6h322.56c81.92 0 87.040-61.44 87.040-76.8v-332.8c0-15.36 10.24-25.6 25.6-25.6s25.6 10.24 25.6 25.6z" />
<glyph unicode="&#xe680;" glyph-name="multiLocation" d="M481.28 102.4c-10.24 0-15.36 5.12-20.48 15.36-10.24 15.36-220.16 384-220.16 604.16 0 133.12 107.52 245.76 240.64 245.76s240.64-107.52 240.64-240.64c0-199.68-209.92-588.8-220.16-604.16 0-15.36-10.24-20.48-20.48-20.48 0 0 0 0 0 0zM481.28 911.36c-107.52 0-189.44-87.040-189.44-189.44 0-168.96 138.24-435.2 189.44-537.6 56.32 107.52 194.56 389.12 194.56 537.6 0 107.52-87.040 189.44-194.56 189.44zM481.28 599.040c-66.56 0-122.88 56.32-122.88 122.88s56.32 122.88 122.88 122.88c66.56 0 122.88-56.32 122.88-122.88s-51.2-122.88-122.88-122.88zM481.28 793.6c-40.96 0-71.68-30.72-71.68-71.68s30.72-71.68 71.68-71.68 71.68 30.72 71.68 71.68-30.72 71.68-71.68 71.68zM158.72-51.2c-10.24 0-15.36 5.12-20.48 10.24s-76.8 133.12-76.8 209.92c0 56.32 46.080 97.28 97.28 97.28s97.28-40.96 97.28-97.28c0-71.68-66.56-194.56-76.8-209.92-5.12-5.12-10.24-10.24-20.48-10.24 0 0 0 0 0 0zM158.72 215.040c-25.6 0-46.080-20.48-46.080-46.080 0-35.84 25.6-97.28 46.080-138.24 20.48 40.96 46.080 102.4 46.080 138.24 0 25.6-20.48 46.080-46.080 46.080zM174.080 168.96c0 10.24-5.12 15.36-15.36 15.36s-15.36-5.12-15.36-15.36c0-10.24 5.12-15.36 15.36-15.36s15.36 5.12 15.36 15.36zM829.44-51.2c-10.24 0-15.36 15.36-20.48 20.48-5.12 10.24-107.52 194.56-107.52 307.2 0 71.68 61.44 133.12 133.12 133.12s133.12-56.32 133.12-133.12c0-102.4-107.52-302.080-107.52-312.32-10.24-5.12-20.48-15.36-30.72-15.36 0 0 0 0 0 0zM829.44 363.52c-46.080 0-81.92-35.84-81.92-81.92 0-66.56 51.2-179.2 81.92-235.52 35.84 66.56 81.92 179.2 81.92 235.52 0 46.080-35.84 81.92-81.92 81.92zM880.64 281.6c0 25.6-20.48 46.080-46.080 46.080s-46.080-20.48-46.080-46.080c0-25.6 20.48-46.080 46.080-46.080 25.6-5.12 46.080 20.48 46.080 46.080z" />
<glyph unicode="&#xe681;" glyph-name="largeBusiness" d="M281.6 665.6h153.6c15.36 0 25.6 10.24 25.6 25.6v153.6c0 15.36-10.24 25.6-25.6 25.6h-153.6c-15.36 0-25.6-10.24-25.6-25.6v-153.6c0-15.36 10.24-25.6 25.6-25.6zM307.2 819.2h102.4v-102.4h-102.4v102.4zM281.6 409.6h153.6c15.36 0 25.6 10.24 25.6 25.6v153.6c0 15.36-10.24 25.6-25.6 25.6h-153.6c-15.36 0-25.6-10.24-25.6-25.6v-153.6c0-15.36 10.24-25.6 25.6-25.6zM307.2 563.2h102.4v-102.4h-102.4v102.4zM998.4 716.8h-128v128c0 15.36-10.24 25.6-25.6 25.6h-153.6c-15.36 0-25.6-10.24-25.6-25.6v-128h-102.4v230.4c0 15.36-10.24 25.6-25.6 25.6h-358.4c-15.36 0-25.6-10.24-25.6-25.6v-332.8h-51.2v102.4c0 15.36-10.24 25.6-25.6 25.6s-25.6-10.24-25.6-25.6v-102.4h-25.6c-15.36 0-25.6-10.24-25.6-25.6v-614.4c0-15.36 10.24-25.6 25.6-25.6h972.8c15.36 0 25.6 10.24 25.6 25.6v716.8c0 15.36-10.24 25.6-25.6 25.6zM716.8 819.2h102.4v-102.4h-102.4v102.4zM51.2 563.2h102.4v-563.2h-102.4v563.2zM204.8 588.8v332.8h307.2v-921.6h-51.2v281.6c0 15.36-10.24 25.6-25.6 25.6h-153.6c-15.36 0-25.6-10.24-25.6-25.6v-281.6h-51.2v588.8zM307.2 0v256h102.4v-256h-102.4zM972.8 0h-409.6v665.6h409.6v-665.6zM691.2 614.4c-15.36 0-25.6-10.24-25.6-25.6v-153.6c0-15.36 10.24-25.6 25.6-25.6h153.6c15.36 0 25.6 10.24 25.6 25.6v153.6c0 15.36-10.24 25.6-25.6 25.6h-153.6zM819.2 460.8h-102.4v102.4h102.4v-102.4zM844.8 358.4h-153.6c-15.36 0-25.6-10.24-25.6-25.6v-153.6c0-15.36 10.24-25.6 25.6-25.6h153.6c15.36 0 25.6 10.24 25.6 25.6v153.6c0 15.36-10.24 25.6-25.6 25.6zM819.2 204.8h-102.4v102.4h102.4v-102.4z" />
<glyph unicode="&#xe682;" glyph-name="smallBusiness" d="M179.2 102.4h204.8c15.36 0 25.6 10.24 25.6 25.6v307.2c0 15.36-10.24 25.6-25.6 25.6h-204.8c-15.36 0-25.6-10.24-25.6-25.6v-307.2c0-15.36 10.24-25.6 25.6-25.6zM204.8 409.6h153.6v-102.4h-51.2c-15.36 0-25.6-10.24-25.6-25.6s10.24-25.6 25.6-25.6h51.2v-102.4h-153.6v256zM486.4 256h358.4c15.36 0 25.6 10.24 25.6 25.6v153.6c0 15.36-10.24 25.6-25.6 25.6h-358.4c-15.36 0-25.6-10.24-25.6-25.6v-153.6c0-15.36 10.24-25.6 25.6-25.6zM512 409.6h307.2v-102.4h-307.2v102.4zM844.8 179.2c0-15.36-10.24-25.6-25.6-25.6h-307.2c-15.36 0-25.6 10.24-25.6 25.6s10.24 25.6 25.6 25.6h307.2c15.36 0 25.6-10.24 25.6-25.6zM1018.88 604.16l-122.88 302.080c-5.12 10.24-15.36 15.36-25.6 15.36h-716.8c-10.24 0-20.48-5.12-20.48-15.36l-128-307.2c-5.12-10.24 0-15.36 0-25.6 5.12-5.12 15.36-10.24 25.6-10.24h20.48v-537.6c0-15.36 10.24-25.6 25.6-25.6h870.4c15.36 0 25.6 10.24 25.6 25.6v537.6h25.6c0 0 0 0 0 0 15.36 0 25.6 10.24 25.6 25.6 0 5.12 0 10.24-5.12 15.36zM174.080 870.4h680.96l102.4-256h-890.88l107.52 256zM921.6 51.2h-819.2v512h819.2v-512z" />
<glyph unicode="&#xe683;" glyph-name="safety" d="M512-35.84c-5.12 0-5.12 0-10.24 0-20.48 10.24-450.56 204.8-450.56 450.56v384c0 5.12 5.12 15.36 10.24 20.48 102.4 81.92 276.48 138.24 445.44 138.24 174.080 0 358.4-56.32 460.8-148.48 0-5.12 5.12-10.24 5.12-20.48v-373.76c0-245.76-430.080-435.2-450.56-445.44-5.12 0-5.12-5.12-10.24-5.12zM102.4 783.36v-368.64c0-194.56 343.040-363.52 409.6-394.24 66.56 30.72 409.6 199.68 409.6 394.24v363.52c-92.16 76.8-261.12 128-414.72 128s-307.2-51.2-404.48-122.88zM501.76 348.16c20.48 20.48 20.48 51.2 0 71.68l-128 133.12c-20.48 20.48-51.2 20.48-71.68 0s-20.48-51.2 0-71.68l128-128c10.24-10.24 25.6-15.36 35.84-15.36s25.6 5.12 35.84 10.24zM501.76 348.16l225.28 225.28c20.48 20.48 20.48 51.2 0 71.68s-51.2 20.48-71.68 0l-225.28-225.28c-20.48-20.48-20.48-51.2 0-71.68 10.24-10.24 25.6-15.36 35.84-15.36s25.6 10.24 35.84 15.36z" />
<glyph unicode="&#xe684;" glyph-name="retail" d="M645.12 670.72c-35.84 0-66.56-30.72-66.56-66.56 0-25.6 15.36-51.2 35.84-61.44v-81.92c0-92.16-66.56-158.72-163.84-158.72h-20.48c-97.28 5.12-174.080 71.68-174.080 163.84v71.68c30.72 5.12 56.32 30.72 56.32 66.56s-30.72 66.56-66.56 66.56-71.68-30.72-71.68-66.56c0-20.48 10.24-40.96 30.72-51.2v-87.040c0-117.76 97.28-209.92 225.28-209.92h20.48c128 0 215.040 87.040 215.040 209.92v76.8c25.6 10.24 46.080 35.84 46.080 61.44 0 35.84-30.72 66.56-66.56 66.56zM276.48 604.16c0-15.36-10.24-25.6-20.48-30.72v40.96c0 10.24-5.12 20.48-15.36 25.6 0 0 0 0 5.12 0 15.36 0 30.72-15.36 30.72-35.84zM609.28 604.16c0 5.12 0 10.24 5.12 15.36 0 0 0-5.12 0-5.12v-25.6c0 5.12-5.12 10.24-5.12 15.36zM665.6 578.56v35.84c0 10.24-5.12 20.48-15.36 20.48 15.36-5.12 25.6-15.36 25.6-30.72 0-10.24-5.12-20.48-10.24-25.6zM1024 844.8c0 0 5.12 5.12 0 0 0 5.12 0 5.12 0 10.24 0 0 0 0 0 0 0 5.12-5.12 5.12-5.12 10.24 0 0 0 0 0 0s0 0 0 0-5.12 0-5.12 5.12c0 0 0 0-5.12 0 0 0 0 0 0 0h-860.16c-5.12 0-15.36-5.12-20.48-10.24 0-5.12-5.12-10.24-5.12-20.48l5.12-40.96-107.52-30.72c0 0 0 0 0 0s0 0-5.12 0c0 0-5.12 0-5.12-5.12 0 0 0 0-5.12-5.12 0 0 0-5.12-5.12-5.12 0 0 0 0 0-5.12 0 0 0-5.12 0-5.12s0 0 0 0v-665.6c0-15.36 10.24-25.6 25.6-25.6h819.2c5.12 0 10.24 0 15.36 5.12 0 0 0-5.12 0-5.12l76.8 51.2h66.56c15.36 0 20.48 20.48 20.48 35.84v706.56c0 0 0 0 0 0zM839.68 819.2l-35.84-10.24c-10.24 0-15.36-10.24-15.36-15.36s0-15.36 5.12-25.6v0h-614.4c5.12 5.12 5.12 10.24 5.12 20.48l-5.12 30.72h660.48zM51.2 716.8h768v-614.4h-768v614.4zM931.84 153.6c-5.12 0-10.24 5.12-15.36 0l-46.080-25.6v609.28c0 0 0 5.12 0 5.12 0 10.24-5.12 15.36-10.24 20.48l-5.12 5.12 117.76 40.96v-655.36h-40.96z" />
<glyph unicode="&#xe685;" glyph-name="restaurant" d="M138.24-40.96c-40.96 0-71.68 10.24-97.28 35.84-35.84 35.84-46.080 87.040-30.72 153.6 15.36 56.32 51.2 117.76 102.4 174.080 81.92 81.92 163.84 102.4 235.52 71.68l542.72 558.080c5.12 5.12 10.24 10.24 20.48 10.24 5.12 0 15.36-5.12 20.48-5.12l71.68-71.68c5.12-5.12 5.12-10.24 5.12-20.48 0-5.12-5.12-15.36-10.24-20.48l-558.080-537.6c20.48-51.2 30.72-133.12-71.68-235.52-71.68-71.68-158.72-112.64-230.4-112.64zM291.84 353.28c-40.96 0-87.040-25.6-133.12-71.68s-76.8-97.28-92.16-148.48c-10.24-46.080-5.12-81.92 15.36-102.4 15.36-15.36 35.84-20.48 61.44-20.48 56.32 0 133.12 35.84 194.56 97.28 71.68 71.68 87.040 133.12 56.32 189.44-5.12 10.24-5.12 25.6 5.12 30.72l542.72 532.48-35.84 35.84-527.36-552.96c-10.24-10.24-20.48-10.24-30.72-5.12-20.48 10.24-40.96 15.36-56.32 15.36z" />
<glyph unicode="&#xe686;" glyph-name="healthCare" d="M235.52 225.28c-51.2 0-56.32 81.92-61.44 271.36 0 66.56-5.12 158.72-15.36 204.8-5.12-20.48-5.12-51.2-10.24-76.8 0-76.8-5.12-163.84-71.68-163.84h-25.6c-15.36 0-25.6 10.24-25.6 25.6s10.24 25.6 25.6 25.6h30.72c15.36 0 15.36 87.040 20.48 117.76 0 71.68 0 143.36 56.32 143.36 51.2 0 56.32-81.92 61.44-271.36 0-71.68 5.12-174.080 15.36-215.040 5.12 20.48 5.12 56.32 10.24 81.92 5.12 66.56 10.24 138.24 56.32 143.36 0 0 5.12 0 5.12 0h20.48c15.36 0 25.6-10.24 25.6-25.6s-10.24-25.6-25.6-25.6h-20.48c-10.24-10.24-10.24-66.56-15.36-97.28 0-66.56-5.12-138.24-56.32-138.24zM665.6 138.24c-5.12 0-10.24 0-15.36 5.12-10.24 10.24-256 204.8-312.32 358.4-5.12 15.36 0 25.6 15.36 30.72s25.6 0 30.72-15.36c40.96-117.76 225.28-276.48 276.48-322.56 92.16 71.68 286.72 250.88 286.72 363.52 0 81.92-66.56 143.36-143.36 143.36-51.2 0-92.16-25.6-122.88-66.56-5.12-5.12-10.24-10.24-20.48-10.24v0c-10.24 0-15.36 5.12-20.48 10.24-25.6 40.96-71.68 66.56-122.88 66.56-66.56 0-128-46.080-143.36-112.64 5.12-15.36-10.24-20.48-20.48-20.48-15.36 5.12-25.6 15.36-20.48 30.72 20.48 92.16 97.28 153.6 189.44 153.6 56.32 0 107.52-20.48 143.36-61.44 35.84 40.96 87.040 61.44 143.36 61.44 107.52 0 194.56-87.040 194.56-194.56 0-168.96-307.2-404.48-322.56-414.72-5.12-5.12-10.24-5.12-15.36-5.12z" />
<glyph unicode="&#xe687;" glyph-name="hospitality" d="M691.2 409.6h153.6c15.36 0 25.6 10.24 25.6 25.6v153.6c0 15.36-10.24 25.6-25.6 25.6h-153.6c-15.36 0-25.6-10.24-25.6-25.6v-153.6c0-15.36 10.24-25.6 25.6-25.6zM716.8 563.2h102.4v-102.4h-102.4v102.4zM691.2 665.6h153.6c15.36 0 25.6 10.24 25.6 25.6v153.6c0 15.36-10.24 25.6-25.6 25.6h-153.6c-15.36 0-25.6-10.24-25.6-25.6v-153.6c0-15.36 10.24-25.6 25.6-25.6zM716.8 819.2h102.4v-102.4h-102.4v102.4zM947.2 972.8h-870.4c-15.36 0-25.6-10.24-25.6-25.6v-972.8c0-15.36 10.24-25.6 25.6-25.6h870.4c15.36 0 25.6 10.24 25.6 25.6v972.8c0 15.36-10.24 25.6-25.6 25.6zM460.8 0v230.4c0 30.72 15.36 61.44 51.2 61.44s51.2-35.84 51.2-61.44v-230.4h-102.4zM921.6 0h-307.2v230.4c0 66.56-40.96 112.64-102.4 112.64s-102.4-46.080-102.4-112.64v-230.4h-307.2v921.6h819.2v-921.6zM179.2 665.6h153.6c15.36 0 25.6 10.24 25.6 25.6v153.6c0 15.36-10.24 25.6-25.6 25.6h-153.6c-15.36 0-25.6-10.24-25.6-25.6v-153.6c0-15.36 10.24-25.6 25.6-25.6zM204.8 819.2h102.4v-102.4h-102.4v102.4zM179.2 409.6h153.6c15.36 0 25.6 10.24 25.6 25.6v153.6c0 15.36-10.24 25.6-25.6 25.6h-153.6c-15.36 0-25.6-10.24-25.6-25.6v-153.6c0-15.36 10.24-25.6 25.6-25.6zM204.8 563.2h102.4v-102.4h-102.4v102.4zM179.2 51.2h153.6c15.36 0 25.6 10.24 25.6 25.6v174.080c0 51.2-46.080 97.28-102.4 97.28s-102.4-46.080-102.4-97.28v-174.080c0-15.36 10.24-25.6 25.6-25.6zM204.8 250.88c0 25.6 25.6 46.080 51.2 46.080s51.2-20.48 51.2-46.080v-148.48h-102.4v148.48zM435.2 409.6h102.4c15.36 0 25.6 10.24 25.6 25.6v153.6c0 15.36-10.24 25.6-25.6 25.6h-102.4c-15.36 0-25.6-10.24-25.6-25.6v-153.6c0-15.36 10.24-25.6 25.6-25.6zM460.8 563.2h51.2v-102.4h-51.2v102.4zM435.2 665.6h102.4c15.36 0 25.6 10.24 25.6 25.6v153.6c0 15.36-10.24 25.6-25.6 25.6h-102.4c-15.36 0-25.6-10.24-25.6-25.6v-153.6c0-15.36 10.24-25.6 25.6-25.6zM460.8 819.2h51.2v-102.4h-51.2v102.4zM691.2 51.2h153.6c15.36 0 25.6 10.24 25.6 25.6v174.080c0 51.2-46.080 97.28-102.4 97.28s-102.4-46.080-102.4-97.28v-174.080c0-15.36 10.24-25.6 25.6-25.6zM716.8 250.88c0 25.6 25.6 46.080 51.2 46.080s51.2-20.48 51.2-46.080v-148.48h-102.4v148.48z" />
<glyph unicode="&#xe688;" glyph-name="noColorInput" d="M747.52 102.4h-471.040c-66.56 0-122.88 56.32-122.88 122.88v471.040c0 66.56 56.32 122.88 122.88 122.88h476.16c61.44 0 117.76-56.32 117.76-122.88v-476.16c0-61.44-56.32-117.76-122.88-117.76zM276.48 768c-40.96 0-71.68-30.72-71.68-71.68v-476.16c0-35.84 30.72-66.56 71.68-66.56h476.16c35.84 0 71.68 30.72 71.68 71.68v471.040c-5.12 40.96-35.84 71.68-76.8 71.68h-471.040z" />
</font>
</defs>
</svg>
